<?xml version="1.0" standalone="no"?>
<!DOCTYPE svg PUBLIC "-//W3C//DTD SVG 20010904//EN"
 "http://www.w3.org/TR/2001/REC-SVG-20010904/DTD/svg10.dtd">
<svg version="1.0" xmlns="http://www.w3.org/2000/svg"
 width="307.000000pt" height="320.000000pt" viewBox="0 0 307.000000 320.000000"
 preserveAspectRatio="xMidYMid meet">

<g transform="translate(0.000000,320.000000) scale(0.100000,-0.100000)"
fill="#000000" stroke="none">
<path d="M1395 3102 c-45 -15 -87 -49 -103 -84 -13 -30 -23 -38 -44 -38 -80 0
-71 -157 11 -185 22 -7 37 -21 46 -41 7 -17 21 -34 30 -38 14 -5 16 -13 10
-44 -3 -20 -13 -48 -22 -61 -24 -37 -35 -149 -18 -186 18 -38 53 -155 52 -175
0 -8 12 -52 26 -97 19 -58 26 -103 26 -150 -1 -69 -14 -123 -30 -123 -5 0 -9
-9 -9 -19 0 -11 -4 -22 -9 -26 -5 -3 -12 -19 -16 -35 -4 -17 -10 -30 -15 -30
-4 0 -8 -17 -7 -37 0 -21 -3 -65 -7 -98 -5 -39 -4 -69 3 -85 16 -35 61 -107
61 -97 0 10 32 -24 47 -51 8 -14 10 -29 4 -44 -5 -14 -5 -47 0 -78 5 -30 10
-103 11 -162 1 -90 4 -108 17 -109 10 0 7 -4 -7 -10 -17 -6 -22 -14 -18 -27 4
-11 -3 -39 -14 -63 l-21 -44 4 35 c3 19 10 65 17 103 10 56 9 77 -4 130 -10
40 -16 107 -16 180 0 71 -4 117 -10 117 -17 0 -12 -224 7 -301 15 -63 15 -74
0 -146 -29 -140 -30 -202 -8 -289 11 -43 23 -104 26 -134 3 -30 13 -85 22
-122 14 -58 15 -78 4 -145 -14 -87 -6 -124 29 -143 12 -6 78 -15 148 -21 70
-5 139 -11 155 -14 51 -9 107 38 107 89 0 15 -81 58 -131 70 -39 9 -146 92
-153 118 -9 37 -6 438 5 493 5 28 13 79 18 115 4 36 25 126 46 200 68 244 77
305 54 395 -6 25 -8 53 -4 62 4 10 9 49 11 87 2 39 7 72 12 75 14 11 30 89 20
99 -6 6 -6 18 1 30 6 11 11 49 11 84 0 62 1 64 30 75 49 19 64 67 64 213 0
141 -17 245 -40 236 -10 -4 -14 2 -14 18 0 12 -12 33 -26 45 -22 19 -30 21
-50 12 -22 -10 -24 -16 -24 -91 l0 -80 -22 22 c-20 20 -22 20 -28 4 -5 -17 -8
-16 -23 7 -9 13 -33 35 -54 47 -49 30 -63 48 -63 81 0 48 9 59 49 59 50 0 78
22 92 73 7 23 17 48 22 54 6 8 4 27 -7 53 -9 22 -16 51 -16 65 0 40 -49 128
-88 158 -30 23 -44 27 -96 26 -34 -1 -70 -4 -81 -7z m54 -73 c-13 -26 -20 -21
-12 9 3 12 9 19 14 16 5 -3 4 -14 -2 -25z m191 -107 c0 -18 7 -47 16 -65 12
-21 13 -32 5 -35 -6 -2 -11 -15 -11 -28 0 -13 -5 -24 -11 -24 -6 0 -9 -6 -6
-12 2 -7 1 -23 -4 -35 -7 -19 -16 -23 -53 -23 -37 0 -48 5 -65 28 -14 18 -20
22 -21 11 0 -8 6 -24 14 -34 10 -14 11 -25 3 -46 -18 -47 1 -101 43 -121 19
-9 49 -31 65 -49 30 -32 23 -32 -27 3 -14 10 -33 18 -41 18 -8 0 -20 7 -27 16
-8 8 -33 27 -57 40 -38 23 -46 24 -78 14 -19 -6 -42 -21 -50 -33 -14 -21 -15
-21 -15 -2 0 11 8 38 19 60 27 58 61 166 61 194 l0 24 23 -21 c31 -29 37 -28
37 8 0 17 -4 30 -10 30 -5 0 -10 5 -10 11 0 6 8 9 17 7 10 -2 18 -12 18 -22 0
-11 5 -21 11 -23 7 -2 10 9 9 29 -2 24 6 40 31 67 19 19 34 41 34 49 0 8 10
25 23 38 l22 23 17 -32 c9 -18 17 -47 18 -65z m-333 -44 c-3 -8 -6 -5 -6 6 -1
11 2 17 5 13 3 -3 4 -12 1 -19z m120 -40 c-3 -8 -6 -5 -6 6 -1 11 2 17 5 13 3
-3 4 -12 1 -19z m344 -320 c5 -21 15 -38 20 -38 7 0 8 8 4 18 -12 31 -23 102
-14 97 4 -3 13 -30 20 -61 12 -52 28 -80 30 -52 4 36 18 -87 18 -157 1 -133
-25 -205 -73 -205 -44 0 -95 22 -137 58 -24 21 -68 51 -96 67 -37 19 -61 41
-78 72 -14 23 -33 43 -42 43 -14 0 -13 -3 4 -22 33 -37 47 -68 30 -68 -8 0
-28 -3 -45 -6 -29 -6 -30 -5 -56 73 -44 132 -29 212 44 228 31 7 101 -32 80
-45 -9 -6 -4 -13 19 -24 18 -10 58 -53 90 -97 32 -43 71 -89 85 -100 29 -23
106 -38 106 -21 0 6 -6 12 -12 15 -10 3 -10 7 -1 18 9 11 4 21 -24 49 -36 36
-68 88 -60 97 3 2 8 -5 12 -17 13 -40 30 -14 30 46 1 77 6 90 14 34 3 -25 11
-43 16 -41 6 1 9 7 8 12 -2 4 -4 32 -7 61 -2 29 -2 42 1 28 2 -14 9 -42 14
-62z m-172 -72 c13 -13 21 -31 19 -39 -2 -9 -13 -1 -30 24 -31 43 -24 52 11
15z m98 -66 c51 -56 59 -86 23 -82 -38 3 -80 55 -80 98 0 20 4 34 8 32 4 -1
26 -23 49 -48z m-159 -154 c27 -14 54 -31 61 -40 11 -13 9 -14 -16 -7 -15 5
-37 12 -48 17 -18 7 -18 6 -7 -9 8 -9 38 -21 68 -28 30 -7 57 -16 60 -21 3 -4
-2 -5 -10 -2 -9 3 -16 2 -16 -3 0 -11 60 -34 72 -27 4 3 17 2 29 -1 19 -6 20
-12 15 -83 -3 -43 -5 -94 -5 -115 0 -20 -7 -50 -15 -66 -8 -15 -16 -57 -18
-92 -2 -36 -8 -68 -16 -74 -23 -18 -201 -1 -257 24 -28 13 -44 25 -37 28 8 3
19 0 25 -6 18 -18 59 -14 55 6 -3 18 -86 79 -95 70 -2 -3 14 -18 36 -33 44
-29 55 -49 19 -35 -70 28 -90 39 -79 45 6 4 11 15 11 25 0 10 7 24 15 31 8 7
14 18 13 24 -1 6 3 21 10 33 7 12 14 57 18 100 4 66 1 90 -20 158 -31 96 -30
92 -8 98 44 12 96 5 140 -17z m-178 -582 c0 -24 -4 -44 -10 -44 -5 0 -7 -13
-3 -32 4 -22 3 -29 -5 -24 -13 8 -16 74 -6 125 9 44 24 28 24 -25z m59 -907
c6 -16 11 -49 10 -75 l-1 -47 -19 70 c-10 39 -18 95 -18 125 l1 55 8 -50 c4
-27 13 -63 19 -78z m23 -152 c3 -14 1 -25 -3 -25 -5 0 -9 11 -9 25 0 14 2 25
4 25 2 0 6 -11 8 -25z m156 -241 c11 -21 31 -49 44 -61 25 -24 129 -73 153
-73 21 0 19 -8 -11 -35 -24 -22 -24 -24 -7 -35 14 -9 7 -10 -37 -5 -30 3 -99
10 -154 15 -137 11 -143 18 -127 137 12 81 11 94 -8 167 -12 44 -18 82 -15 85
3 3 19 4 37 3 18 -1 46 1 62 6 l30 9 6 -87 c5 -56 14 -100 27 -126z m167 -95
c22 -7 35 -14 28 -16 -17 -6 -109 36 -130 59 -15 18 -12 17 22 -4 22 -14 58
-32 80 -39z"/>
<path d="M1588 2916 c-16 -12 -16 -14 3 -34 25 -28 39 -28 39 -1 0 16 -4 19
-22 14 -21 -6 -22 -5 -5 8 31 25 17 38 -15 13z"/>
<path d="M1407 2203 c-3 -3 4 -14 16 -25 12 -11 16 -17 10 -13 -17 8 -16 -6 0
-29 7 -10 12 -37 11 -59 -2 -35 4 -50 38 -94 22 -29 42 -53 44 -53 11 0 1 22
-21 48 -13 16 -22 32 -19 35 3 3 -4 24 -16 47 l-22 43 29 -7 28 -6 -29 24
c-24 20 -27 27 -17 39 10 12 7 19 -17 36 -16 11 -32 18 -35 14z"/>
<path d="M1550 2143 c1 -11 126 -83 145 -83 8 0 15 5 15 10 0 6 -8 10 -18 10
-10 0 -42 16 -72 35 -56 35 -70 41 -70 28z"/>
<path d="M1630 2055 c0 -9 44 -23 54 -17 5 3 1 9 -10 13 -23 9 -44 11 -44 4z"/>
<path d="M1665 1990 c-19 -7 -19 -8 -2 -15 19 -8 31 -2 26 13 -2 5 -13 6 -24
2z"/>
<path d="M1610 1943 c0 -3 17 -21 38 -40 24 -22 33 -36 25 -39 -7 -3 -13 -17
-13 -30 0 -15 -6 -24 -16 -24 -11 0 -14 -6 -9 -21 7 -20 5 -21 -21 -15 l-29 7
33 -33 c36 -38 39 -48 17 -48 -8 0 -15 -4 -15 -10 0 -5 11 -10 25 -10 29 0 33
24 9 51 -15 17 -15 21 2 46 10 16 17 36 16 46 -2 10 3 17 14 17 16 0 16 11 -1
53 -5 12 -2 17 9 17 9 0 16 7 16 15 0 17 -17 20 -22 4 -3 -8 -15 -6 -41 4 -20
9 -37 13 -37 10z"/>
<path d="M1451 1923 c-1 -12 4 -25 9 -28 12 -7 12 2 0 30 -8 19 -9 19 -9 -2z"/>
<path d="M1440 1880 c0 -9 5 -21 11 -27 9 -9 6 -10 -12 -6 -23 6 -23 6 -8 -17
22 -33 64 -63 80 -58 9 3 0 12 -21 23 -26 14 -31 20 -17 23 22 5 21 11 -8 47
-16 20 -25 25 -25 15z"/>
<path d="M1490 334 c0 -45 11 -95 20 -89 9 6 1 83 -11 105 -6 11 -8 6 -9 -16z"/>
</g>
</svg>
