<?xml version="1.0" standalone="no"?>
<!DOCTYPE svg PUBLIC "-//W3C//DTD SVG 20010904//EN"
 "http://www.w3.org/TR/2001/REC-SVG-20010904/DTD/svg10.dtd">
<svg version="1.0" xmlns="http://www.w3.org/2000/svg"
 width="307.000000pt" height="291.000000pt" viewBox="0 0 307.000000 291.000000"
 preserveAspectRatio="xMidYMid meet">

<g transform="translate(0.000000,291.000000) scale(0.100000,-0.100000)"
fill="#000000" stroke="none">
<path d="M985 2436 c-59 -19 -137 -61 -162 -88 -33 -35 -43 -72 -43 -151 0
-117 29 -197 124 -344 96 -149 126 -234 166 -463 10 -63 24 -169 30 -235 6
-66 13 -133 16 -150 15 -77 84 -133 146 -120 l31 7 -7 -53 c-4 -30 -12 -76
-18 -103 l-10 -48 -25 58 c-13 33 -32 79 -40 104 -9 24 -18 39 -21 32 -2 -7
14 -61 37 -121 l40 -108 -11 -93 c-17 -150 14 -249 91 -286 33 -16 197 -44
256 -43 27 0 28 1 12 13 -16 13 -16 14 5 20 13 3 37 6 53 6 23 0 27 3 15 10
-8 5 -46 9 -85 8 -65 -1 -67 -1 -25 -8 25 -4 35 -8 23 -8 -26 -2 -38 -18 -21
-26 7 -4 2 -4 -12 -1 -14 4 -61 11 -105 17 -106 14 -147 35 -175 94 -21 42
-22 56 -17 152 3 59 15 151 26 204 11 53 23 128 27 165 11 106 75 276 123 328
22 24 49 60 61 82 11 21 34 59 50 85 36 58 50 132 50 264 l0 102 33 27 c17 15
55 42 84 60 l51 33 21 -48 c50 -116 74 -286 52 -367 -9 -33 -15 -40 -30 -36
-24 6 -49 -30 -63 -89 -11 -51 -24 -68 -51 -68 -30 0 -119 -99 -155 -173 -17
-34 -42 -100 -55 -147 -14 -47 -43 -137 -66 -200 -69 -200 -73 -297 -12 -352
25 -22 27 -27 13 -30 -20 -5 144 -37 220 -43 29 -3 9 3 -45 13 -54 10 -101 22
-105 27 -4 6 -24 18 -45 28 -63 29 -80 98 -53 212 l11 50 22 -35 c34 -56 59
-73 218 -154 83 -43 151 -81 153 -86 5 -15 -66 -23 -152 -18 -45 3 -68 2 -51
-2 37 -9 162 -12 193 -4 52 14 23 39 -143 122 -159 80 -167 85 -200 136 l-34
53 51 159 c82 261 73 243 112 234 18 -4 46 -17 62 -28 16 -12 60 -27 100 -34
63 -10 77 -10 117 6 49 18 82 59 93 113 5 25 11 30 37 31 87 2 141 119 82 178
-22 22 -30 24 -73 18 l-49 -6 -41 60 -41 61 22 48 c18 40 22 66 21 148 0 98
-1 103 -58 245 -32 80 -64 150 -72 156 -7 6 -10 15 -6 19 4 5 2 5 -4 2 -7 -4
-18 0 -25 9 -21 25 -116 87 -208 134 -46 24 -126 72 -177 106 -51 34 -90 56
-88 49 7 -18 152 -113 267 -175 141 -75 210 -129 236 -184 16 -31 21 -55 16
-74 -6 -31 -54 -81 -95 -102 -14 -7 -42 -26 -62 -42 -21 -16 -38 -27 -38 -23
0 20 -28 -20 -39 -55 -12 -40 -25 -51 -34 -27 -3 6 -6 3 -6 -8 0 -11 3 -26 7
-33 9 -14 22 6 46 73 14 39 15 37 15 -73 l1 -113 -62 33 c-35 18 -82 51 -105
74 -35 33 -43 47 -43 76 0 58 -11 96 -35 120 -13 13 -26 42 -30 68 -4 25 -25
88 -47 140 -52 122 -68 175 -68 225 0 54 17 112 36 123 12 7 13 10 2 19 -7 6
-16 12 -20 13 -4 0 -27 10 -50 20 -49 22 -105 24 -163 6z m71 -157 c27 -30 65
-43 76 -27 6 10 8 10 8 -1 0 -8 9 -33 19 -55 11 -23 41 -90 67 -151 l48 -110
8 -190 c4 -104 12 -221 17 -260 10 -71 15 -363 6 -353 -12 12 -27 181 -35 398
-5 157 -13 251 -23 282 -12 38 -12 48 -1 60 11 11 9 26 -10 93 -25 90 -38 118
-64 137 -10 7 -33 37 -51 66 -18 29 -51 67 -72 86 -21 18 -36 36 -32 39 11 11
19 8 39 -14z m57 -217 c13 -32 39 -115 57 -187 26 -105 33 -156 36 -265 l4
-135 -35 150 c-19 83 -41 198 -49 256 -17 119 -25 144 -61 197 -14 20 -25 50
-25 67 l1 30 23 -28 c13 -16 35 -54 49 -85z m-116 -99 c12 -43 20 -79 18 -81
-2 -2 -20 29 -40 68 -29 58 -34 75 -23 81 21 14 22 12 45 -68z m-114 3 c10
-24 43 -86 74 -137 30 -52 64 -116 75 -144 22 -56 68 -266 67 -305 0 -14 -13
36 -28 110 -35 167 -57 223 -154 377 -42 68 -77 127 -77 133 0 26 27 5 43 -34z
m978 -201 c21 -63 26 -177 11 -230 -8 -26 -9 -22 -16 38 -7 72 -44 200 -75
255 -16 31 -16 36 -2 67 l16 33 23 -52 c13 -28 32 -78 43 -111z m-521 -32 c0
-25 7 -60 16 -78 16 -34 94 -95 172 -134 31 -16 42 -27 38 -37 -3 -9 -6 -21
-6 -27 0 -25 -18 -37 -70 -47 -29 -6 -62 -18 -72 -27 -20 -18 -23 -58 -8 -99
7 -18 7 -30 -1 -40 -6 -7 -8 -18 -4 -24 3 -5 -3 -22 -14 -36 -12 -15 -26 -44
-31 -65 -25 -92 -42 -11 -33 156 4 77 1 143 -11 218 -9 59 -16 158 -16 220 l1
112 19 -24 c13 -15 20 -38 20 -68z m148 -402 l-53 -71 -12 28 c-28 62 -3 101
70 112 23 3 43 5 45 4 1 -1 -21 -33 -50 -73z m312 51 c0 -5 -9 -17 -20 -27
-22 -20 -26 -14 -10 16 11 19 30 26 30 11z m-25 -127 c14 -14 25 -34 25 -44 0
-11 7 -22 16 -25 10 -4 13 -13 9 -25 -4 -13 6 -29 35 -55 22 -20 40 -43 40
-51 0 -22 -31 -31 -41 -12 -5 8 -24 20 -42 26 -27 9 -33 16 -32 39 0 20 -7 31
-31 42 -25 13 -29 19 -20 33 8 12 7 22 -2 37 -10 16 -10 24 0 40 7 11 14 20
15 20 1 0 14 -11 28 -25z m205 -20 c0 -8 -2 -15 -4 -15 -2 0 -6 7 -10 15 -3 8
-1 15 4 15 6 0 10 -7 10 -15z m-361 -82 c-4 -21 -8 -39 -7 -41 3 -17 -28 -62
-43 -62 -27 0 -33 18 -14 48 24 37 65 92 69 92 2 0 0 -17 -5 -37z m-385 -4 c3
-17 6 -41 5 -53 0 -20 0 -20 -8 -1 -14 35 -21 85 -12 85 5 0 11 -14 15 -31z
m533 -34 c2 -11 0 -14 -3 -7 -3 6 -12 12 -20 12 -8 0 -14 5 -14 11 0 19 35 4
37 -16z m-450 -67 c-3 -8 -6 -5 -6 6 -1 11 2 17 5 13 3 -3 4 -12 1 -19z m523
-8 c0 -5 -2 -10 -4 -10 -3 0 -8 5 -11 10 -3 6 -1 10 4 10 6 0 11 -4 11 -10z
m-652 -113 c28 -25 85 -20 90 8 2 11 8 25 14 30 6 7 7 0 2 -20 -4 -16 -12 -33
-18 -37 -18 -13 -70 -8 -90 7 -22 17 -56 65 -56 80 0 6 8 -3 19 -20 10 -16 27
-38 39 -48z"/>
<path d="M1264 2276 c-6 -17 22 -76 36 -76 6 0 10 7 10 15 0 20 4 19 53 -11
36 -23 39 -24 23 -5 -11 11 -25 21 -32 21 -7 0 -19 10 -25 22 l-12 22 -9 -24
-9 -25 -15 28 c-8 15 -12 32 -9 37 3 6 4 10 0 10 -3 0 -8 -6 -11 -14z"/>
<path d="M1294 2061 c9 -66 32 -125 46 -116 5 3 10 -1 10 -10 0 -33 32 -153
45 -171 9 -13 8 2 -6 46 -11 36 -23 108 -27 160 l-8 95 -7 -54 c-10 -68 -24
-57 -38 30 -13 78 -24 94 -15 20z"/>
<path d="M1565 2103 c83 -10 92 -21 71 -83 l-14 -40 32 0 c18 0 41 7 52 16 18
15 18 15 -3 10 -13 -4 -33 -9 -45 -12 -17 -5 -20 -3 -14 11 28 75 9 106 -63
104 -31 -2 -36 -3 -16 -6z"/>
<path d="M1460 1977 c0 -3 -7 -39 -16 -79 -17 -81 -23 -159 -11 -151 4 2 7 16
7 31 0 15 7 65 15 111 8 47 13 87 10 89 -3 3 -5 3 -5 -1z"/>
<path d="M1684 1878 l-29 -33 33 29 c30 28 37 36 29 36 -2 0 -16 -15 -33 -32z"/>
<path d="M1512 1715 c0 -16 2 -22 5 -12 2 9 2 23 0 30 -3 6 -5 -1 -5 -18z"/>
<path d="M1741 1705 c13 -21 28 -59 35 -84 11 -39 13 -41 13 -16 1 36 -29 104
-53 124 -13 11 -12 5 5 -24z"/>
<path d="M1476 1688 c-3 -13 -5 -32 -5 -43 1 -11 5 -2 10 19 10 42 6 62 -5 24z"/>
<path d="M1431 1683 c-1 -27 19 -73 32 -73 5 0 4 7 -3 15 -7 8 -16 30 -20 48
-6 22 -8 25 -9 10z"/>
</g>
</svg>
