<?xml version="1.0" standalone="no"?>
<!DOCTYPE svg PUBLIC "-//W3C//DTD SVG 20010904//EN"
 "http://www.w3.org/TR/2001/REC-SVG-20010904/DTD/svg10.dtd">
<svg version="1.0" xmlns="http://www.w3.org/2000/svg"
 width="307.000000pt" height="320.000000pt" viewBox="0 0 307.000000 320.000000"
 preserveAspectRatio="xMidYMid meet">

<g transform="translate(0.000000,320.000000) scale(0.100000,-0.100000)"
fill="#000000" stroke="none">
<path d="M315 2980 c-17 -4 4 -6 50 -3 66 4 95 0 165 -21 47 -14 135 -40 195
-57 140 -39 292 -106 381 -169 136 -97 290 -189 343 -204 58 -17 161 -22 161
-7 0 5 -35 10 -77 13 -59 3 -92 11 -133 32 -58 29 -86 50 -60 45 36 -7 71 11
77 41 3 16 9 27 14 24 5 -3 9 6 9 20 0 14 0 29 1 33 0 4 -4 9 -9 11 -5 1 -9
-8 -9 -22 0 -14 -9 -40 -20 -58 -17 -29 -24 -33 -64 -34 -36 -1 -55 6 -101 38
-32 21 -58 44 -58 51 0 7 -14 27 -31 45 l-31 31 24 6 c13 3 48 9 78 15 l55 9
-70 -4 c-38 -2 -86 -10 -105 -18 -34 -14 -38 -13 -144 35 -59 27 -167 65 -240
85 -72 19 -162 44 -200 54 -71 19 -147 23 -201 9z"/>
<path d="M290 2931 c-15 -6 -24 -41 -10 -41 11 0 32 28 28 38 -1 5 -10 7 -18
3z"/>
<path d="M243 2878 c-5 -10 31 -12 182 -13 163 0 259 -27 364 -102 42 -29 110
-76 152 -104 71 -46 77 -53 82 -90 3 -22 17 -58 30 -78 18 -27 22 -42 15 -49
-6 -6 -7 -16 -2 -23 4 -7 8 -27 8 -43 1 -40 38 -62 89 -52 32 6 37 10 37 36 0
23 5 30 30 35 26 6 37 1 75 -33 30 -26 73 -50 125 -68 43 -16 77 -30 74 -33
-13 -13 67 -73 127 -96 77 -30 94 -45 85 -78 -4 -18 3 -31 29 -57 36 -35 45
-65 23 -73 -10 -3 -10 -7 -1 -18 13 -16 -4 -79 -31 -108 -43 -47 -54 -174 -22
-261 14 -36 13 -57 -4 -151 -6 -31 -9 -108 -8 -170 l2 -114 -46 -62 c-53 -71
-101 -181 -118 -268 -6 -33 -16 -70 -22 -81 -6 -12 -8 -42 -6 -65 3 -24 -1
-73 -8 -109 -8 -36 -14 -84 -14 -107 0 -23 -10 -62 -21 -87 -21 -41 -21 -47
-8 -102 16 -66 24 -71 122 -73 36 -1 72 -8 97 -21 46 -24 133 -26 170 -5 23
13 18 13 -47 8 -60 -5 -80 -2 -122 16 -35 15 -70 21 -119 21 -64 0 -70 2 -80
25 -17 37 -16 43 18 96 26 39 32 63 40 140 6 52 13 109 16 126 l5 33 36 -15
c19 -8 46 -15 59 -15 30 0 30 -3 0 -76 -24 -59 -29 -85 -27 -136 2 -40 115
-132 183 -149 35 -8 52 -18 55 -30 7 -27 23 -24 23 4 0 30 -30 57 -105 96 -33
17 -80 49 -104 71 l-43 40 22 71 c11 39 31 81 44 93 12 11 28 37 36 56 7 19
28 60 47 90 18 31 55 108 81 171 27 63 63 142 82 175 86 154 100 185 115 245
9 35 24 91 33 124 26 91 22 398 -7 570 -45 274 -93 421 -161 498 -55 64 -69
67 -253 64 -163 -2 -166 -2 -191 22 -14 14 -26 33 -26 43 0 10 -4 18 -9 18
-21 0 8 -57 40 -78 33 -22 40 -23 196 -20 182 3 190 1 246 -79 l29 -40 -26
-26 c-14 -14 -26 -30 -26 -36 0 -16 52 -51 76 -51 40 0 30 -36 -16 -62 -22
-13 -40 -26 -40 -30 0 -4 14 -15 30 -25 40 -23 65 -78 86 -187 12 -64 20 -84
25 -70 6 14 8 10 8 -17 1 -20 4 -63 7 -96 l7 -60 -68 -13 c-75 -14 -168 -8
-239 16 -51 18 -53 20 -30 45 16 18 23 18 177 4 29 -2 45 0 42 5 -4 6 -34 10
-68 11 -62 1 -62 1 -25 13 20 6 39 14 43 17 3 4 -23 17 -60 29 -36 12 -65 26
-63 32 4 12 3 12 70 4 32 -4 62 -4 68 -1 7 4 -8 28 -38 59 -27 28 -54 62 -61
74 l-12 23 38 -17 c50 -21 73 -28 73 -20 0 5 -35 22 -97 47 -42 16 -27 -28 29
-87 28 -30 48 -57 45 -60 -3 -4 -31 -3 -62 1 -48 6 -55 9 -55 29 0 12 -13 35
-29 50 -20 19 -29 38 -29 57 1 40 -14 54 -93 84 -64 25 -136 71 -126 82 9 8
137 -19 131 -28 -7 -11 -7 -11 41 6 22 8 51 14 65 14 l25 0 -27 -15 c-42 -22
-34 -34 25 -32 35 1 42 2 20 5 -35 4 -43 17 -18 27 27 10 15 26 -20 26 l-35 0
30 42 c16 22 30 46 30 52 0 6 -8 -3 -19 -19 -21 -35 -81 -89 -89 -80 -3 3 8
20 25 38 17 17 42 49 56 70 16 24 27 34 30 25 2 -7 2 -3 1 9 -2 12 0 25 6 28
12 8 13 25 1 25 -4 0 -26 -30 -47 -66 -21 -36 -52 -77 -69 -91 -27 -23 -35
-25 -95 -19 -78 7 -133 24 -124 38 4 6 -1 8 -13 4 -12 -4 -39 6 -74 27 -101
62 -126 80 -137 106 -18 40 -144 141 -230 186 -42 22 -116 70 -163 106 -92 71
-160 102 -274 124 -76 16 -324 25 -332 13z m1751 -525 c5 -17 3 -23 -8 -23 -8
0 -27 10 -41 23 l-26 22 22 24 22 24 12 -24 c7 -13 16 -34 19 -46z m-826 35
c-3 -7 -13 -15 -23 -16 -15 -4 -16 -2 -4 12 17 19 32 21 27 4z m876 -255 l7
-48 -24 51 c-14 28 -37 61 -53 74 -18 14 -24 24 -17 27 7 3 23 13 35 23 l23
19 11 -49 c6 -27 14 -70 18 -97z m13 -75 c-3 -8 -6 -5 -6 6 -1 11 2 17 5 13 3
-3 4 -12 1 -19z m10 -70 c-3 -7 -5 -2 -5 12 0 14 2 19 5 13 2 -7 2 -19 0 -25z
m-213 -94 c56 -19 46 -34 -21 -34 -35 0 -43 3 -43 18 0 15 8 32 15 32 1 0 23
-7 49 -16z m221 -154 c3 -5 1 -10 -4 -10 -6 0 -11 5 -11 10 0 6 2 10 4 10 3 0
8 -4 11 -10z m-21 -167 c-4 -38 -13 -79 -21 -93 -13 -23 -14 -21 -8 30 10 83
14 111 20 121 13 20 15 6 9 -58z m-179 -86 c-4 -45 -13 -112 -20 -147 l-13
-65 -3 80 c-5 139 5 215 28 215 13 0 14 -12 8 -83z m142 -59 c-3 -8 -6 -5 -6
6 -1 11 2 17 5 13 3 -3 4 -12 1 -19z m-10 -50 c-3 -8 -6 -5 -6 6 -1 11 2 17 5
13 3 -3 4 -12 1 -19z m-27 -93 c-10 -33 -19 -52 -19 -41 -1 21 33 121 36 109
2 -5 -6 -35 -17 -68z m-253 -7 c-2 -13 -4 -3 -4 22 0 25 2 35 4 23 2 -13 2
-33 0 -45z m230 -90 c-3 -8 -6 -5 -6 6 -1 11 2 17 5 13 3 -3 4 -12 1 -19z
m-400 -420 c-3 -8 -6 -5 -6 6 -1 11 2 17 5 13 3 -3 4 -12 1 -19z m-10 -80 c-3
-7 -5 -2 -5 12 0 14 2 19 5 13 2 -7 2 -19 0 -25z m-26 -250 c-7 -55 -18 -90
-36 -116 -30 -44 -32 -24 -4 38 11 25 25 83 30 130 10 102 11 104 16 61 3 -19
0 -70 -6 -113z m265 -158 c75 -34 93 -55 25 -30 -52 18 -140 80 -155 108 -5 9
8 2 29 -17 21 -18 66 -46 101 -61z"/>
<path d="M408 2833 c8 -3 5 -11 -10 -24 -23 -18 -23 -18 50 -19 l74 0 -27 -31
c-14 -17 -24 -33 -22 -36 3 -2 30 6 62 18 54 20 103 55 92 66 -3 2 -15 -5 -27
-17 -35 -35 -108 -56 -77 -22 10 10 17 22 17 25 0 4 -30 7 -67 7 l-68 1 35 19
35 19 -40 0 c-22 0 -34 -3 -27 -6z"/>
<path d="M313 2823 c15 -2 39 -2 55 0 15 2 2 4 -28 4 -30 0 -43 -2 -27 -4z"/>
<path d="M1320 2813 c14 -3 28 -10 32 -17 5 -7 8 -5 8 7 0 13 -8 17 -32 16
-28 -2 -29 -2 -8 -6z"/>
<path d="M1241 2782 c-15 -28 2 -48 23 -27 21 21 21 29 0 21 -14 -5 -15 -4 -4
9 8 10 9 15 2 15 -6 0 -16 -8 -21 -18z"/>
<path d="M1380 2764 c0 -14 3 -14 15 -4 8 7 15 14 15 16 0 2 -7 4 -15 4 -8 0
-15 -7 -15 -16z"/>
<path d="M1034 2701 c7 -11 46 -35 46 -28 0 3 -12 12 -26 22 -15 9 -23 12 -20
6z"/>
<path d="M1620 2523 c0 -5 14 -16 30 -25 21 -12 30 -25 30 -43 0 -42 -25 -90
-66 -124 l-39 -32 30 6 c49 11 74 27 95 61 36 57 24 112 -30 143 -41 23 -50
25 -50 14z"/>
<path d="M1445 2501 c14 -24 105 -59 105 -42 0 6 -7 11 -15 11 -9 0 -34 9 -56
21 -23 11 -38 16 -34 10z"/>
<path d="M1763 2183 c-29 -2 -53 -9 -53 -14 0 -14 60 -37 112 -44 l43 -5 -55
19 -55 18 43 8 c41 7 71 27 35 23 -10 -1 -42 -3 -70 -5z"/>
</g>
</svg>
