<?xml version="1.0" standalone="no"?>
<!DOCTYPE svg PUBLIC "-//W3C//DTD SVG 20010904//EN"
 "http://www.w3.org/TR/2001/REC-SVG-20010904/DTD/svg10.dtd">
<svg version="1.0" xmlns="http://www.w3.org/2000/svg"
 width="307.000000pt" height="320.000000pt" viewBox="0 0 307.000000 320.000000"
 preserveAspectRatio="xMidYMid meet">

<g transform="translate(0.000000,320.000000) scale(0.100000,-0.100000)"
fill="#000000" stroke="none">
<path d="M1340 3103 c-38 -7 -88 -49 -110 -93 -15 -29 -24 -37 -39 -33 -12 3
-28 -4 -41 -17 -41 -41 -10 -147 49 -166 22 -7 38 -21 46 -41 7 -16 20 -33 29
-36 23 -9 20 -53 -7 -112 -31 -67 -33 -145 -6 -242 33 -121 37 -140 49 -268 6
-66 15 -140 20 -165 6 -34 5 -49 -6 -61 -8 -8 -14 -21 -14 -27 0 -15 -33 -85
-44 -93 -5 -4 -5 -12 -2 -18 4 -6 2 -46 -5 -89 -10 -67 -10 -83 3 -108 28 -54
53 -99 58 -104 3 -3 6 -70 8 -150 2 -80 8 -160 14 -179 10 -33 7 -86 -12 -186
-15 -86 -12 -200 10 -277 11 -40 20 -91 20 -113 0 -22 8 -71 18 -110 15 -59
17 -83 9 -151 -18 -141 -8 -150 178 -165 66 -5 134 -11 151 -14 56 -10 114 36
114 89 0 16 -49 43 -129 71 -67 23 -149 90 -160 131 -13 48 -3 420 16 549 16
115 77 355 92 364 4 3 12 36 15 74 4 37 12 67 17 67 4 0 7 12 4 28 -2 15 -9
62 -16 104 -9 61 -9 81 0 92 9 10 9 20 2 33 -5 11 -6 25 -1 33 4 7 8 29 8 49
0 19 5 37 11 39 6 2 11 16 11 30 0 15 4 33 9 41 6 9 4 22 -5 36 -23 35 -20
195 5 275 27 84 27 149 1 182 -11 14 -66 60 -122 103 -107 81 -127 103 -127
145 -1 39 13 52 59 56 23 2 46 7 51 10 17 10 49 83 43 98 -3 9 -1 16 5 16 14
0 14 35 0 61 -5 11 -13 39 -15 62 -7 57 -52 137 -93 164 -34 23 -100 29 -171
16z m60 -57 c0 -23 -11 -46 -20 -41 -10 6 0 55 11 55 5 0 9 -6 9 -14z m-88
-48 c-8 -8 -9 -4 -5 13 4 13 8 18 11 10 2 -7 -1 -18 -6 -23z m262 -23 c10 -25
16 -51 13 -58 -3 -7 3 -31 13 -53 16 -34 17 -41 4 -55 -8 -9 -11 -19 -7 -22 3
-4 -2 -14 -13 -22 -10 -8 -14 -15 -7 -15 7 0 10 -7 6 -17 -17 -49 -89 -59
-121 -18 -27 34 -36 31 -17 -6 13 -24 14 -37 6 -62 -21 -58 -1 -86 120 -178
61 -45 117 -93 125 -105 27 -40 27 -86 1 -164 -20 -61 -25 -93 -24 -182 0 -60
4 -111 9 -114 10 -6 1 -62 -12 -79 -5 -6 -10 -42 -12 -80 -3 -77 -15 -94 -60
-95 -16 0 -28 -6 -29 -12 -2 -23 -38 124 -65 262 -24 121 -26 149 -20 270 10
213 18 300 27 294 22 -13 6 10 -27 39 -93 82 -147 96 -195 48 -26 -27 -29 -28
-29 -9 0 11 9 35 19 52 11 17 23 49 27 70 4 22 13 51 20 65 8 14 14 41 14 60
l0 34 24 -22 c32 -30 47 -21 35 21 -5 20 -5 36 1 42 6 6 12 -1 16 -22 8 -42
24 -41 24 1 0 22 10 41 30 61 17 16 30 34 30 39 0 13 40 77 48 77 4 0 15 -20
26 -45z m-327 -97 c-3 -8 -6 -5 -6 6 -1 11 2 17 5 13 3 -3 4 -12 1 -19z m120
-40 c-3 -8 -6 -5 -6 6 -1 11 2 17 5 13 3 -3 4 -12 1 -19z m63 -314 c56 -44 59
-60 42 -229 -18 -174 -10 -297 32 -483 53 -232 62 -261 95 -280 16 -9 34 -24
40 -35 11 -16 10 -17 -9 -7 -25 13 -26 -1 -5 -80 8 -30 15 -59 15 -65 0 -18
-20 19 -31 59 -7 25 -14 35 -20 29 -7 -7 -1 -30 15 -67 14 -31 22 -56 18 -56
-4 0 -18 25 -31 55 -13 30 -27 55 -32 55 -13 0 -11 -12 4 -35 21 -32 37 -75
28 -75 -4 0 -20 25 -35 56 -20 41 -30 53 -36 43 -11 -17 -23 12 -56 136 -13
50 -41 140 -63 202 -48 135 -66 220 -86 419 -8 83 -22 173 -30 200 -48 160 32
248 145 158z m-67 -717 l16 -49 -25 17 c-14 9 -29 14 -32 10 -4 -4 0 -10 9
-15 29 -17 64 -48 59 -54 -3 -2 -24 3 -46 13 -38 17 -41 21 -36 51 2 17 11 34
18 37 8 3 14 14 14 26 0 27 4 21 23 -36z m25 -108 c12 -5 22 -13 22 -19 0 -11
-41 5 -75 28 -19 13 -19 13 5 7 14 -4 35 -11 48 -16z m-86 -36 c4 -55 3 -73
-9 -73 -8 0 -10 -12 -7 -37 4 -29 3 -34 -5 -23 -12 17 -14 57 -5 113 7 38 23
51 26 20z m66 -266 c3 -28 12 -188 14 -259 2 -42 6 -80 10 -83 4 -4 1 -16 -5
-27 -10 -16 -9 -22 7 -34 17 -12 18 -14 3 -14 -12 0 -17 -8 -17 -29 0 -16 -9
-48 -21 -72 -23 -49 -23 -51 2 93 9 59 10 89 1 130 -6 29 -14 113 -17 185 -5
110 -3 132 8 127 8 -2 14 -10 15 -17z m7 -747 c3 -25 8 -60 11 -77 3 -20 1
-33 -6 -33 -5 0 -10 13 -10 28 0 16 -7 50 -14 77 -8 26 -17 73 -21 104 l-5 56
20 -55 c10 -30 22 -75 25 -100z m145 -202 c0 -98 19 -148 73 -195 31 -27 130
-73 157 -73 6 0 10 -5 10 -11 0 -5 -4 -8 -9 -4 -5 3 -12 -4 -16 -15 -3 -11
-11 -20 -17 -20 -6 0 -5 -7 3 -17 13 -15 10 -16 -36 -9 -27 4 -93 11 -145 15
-52 5 -103 12 -113 16 -29 12 -38 49 -27 106 14 72 12 126 -5 183 -8 27 -15
59 -15 72 0 20 5 22 56 23 31 0 59 3 62 6 16 16 22 -3 22 -77z m112 -190 c15
-11 51 -28 80 -38 29 -10 48 -19 41 -19 -24 -2 -119 40 -148 65 -32 28 -18 24
27 -8z"/>
<path d="M1530 2910 c-24 -15 -7 -19 20 -5 15 8 19 14 10 14 -8 1 -22 -3 -30
-9z"/>
<path d="M1546 2887 c-18 -13 -18 -14 -1 -21 11 -4 22 -1 27 6 18 29 4 37 -26
15z"/>
<path d="M1526 2161 c5 -5 20 -12 34 -15 24 -7 24 -6 6 8 -21 17 -57 23 -40 7z"/>
<path d="M1520 2123 c0 -15 108 -75 127 -70 17 4 16 4 -2 11 -40 15 -61 25
-92 46 -18 12 -33 18 -33 13z"/>
<path d="M1570 2125 c0 -7 72 -36 77 -31 3 3 -9 12 -26 20 -30 16 -51 20 -51
11z"/>
<path d="M1583 2043 c9 -15 46 -23 53 -12 3 5 -1 9 -10 9 -8 0 -22 3 -32 7
-11 4 -15 3 -11 -4z"/>
<path d="M1600 1968 c0 -11 28 -10 35 1 3 6 -4 9 -15 8 -11 -1 -20 -5 -20 -9z"/>
<path d="M1580 1905 c48 -35 69 -71 34 -58 -14 5 -16 2 -10 -20 5 -20 3 -27
-9 -27 -8 0 -15 -9 -15 -20 0 -11 -4 -20 -10 -20 -17 0 -11 -26 10 -45 24 -21
26 -40 5 -31 -8 3 -15 1 -15 -4 0 -6 11 -10 25 -10 29 0 30 2 11 39 -15 28
-12 71 5 71 5 0 9 12 9 26 0 14 4 23 9 20 14 -9 19 16 10 41 -6 16 -4 25 8 31
9 6 13 14 8 22 -6 10 -9 10 -15 0 -6 -10 -15 -10 -40 -1 -51 17 -57 13 -20
-14z"/>
<path d="M1433 278 c4 -28 12 -56 18 -62 9 -8 10 -3 5 23 -3 18 -6 46 -6 62 0
16 -5 29 -11 29 -8 0 -10 -16 -6 -52z"/>
</g>
</svg>
