<?xml version="1.0" standalone="no"?>
<!DOCTYPE svg PUBLIC "-//W3C//DTD SVG 20010904//EN"
 "http://www.w3.org/TR/2001/REC-SVG-20010904/DTD/svg10.dtd">
<svg version="1.0" xmlns="http://www.w3.org/2000/svg"
 width="307.000000pt" height="320.000000pt" viewBox="0 0 307.000000 320.000000"
 preserveAspectRatio="xMidYMid meet">

<g transform="translate(0.000000,320.000000) scale(0.100000,-0.100000)"
fill="#000000" stroke="none">
<path d="M282 3018 c-64 -14 -45 -20 24 -7 97 18 156 6 484 -96 116 -36 252
-107 395 -205 189 -130 239 -153 350 -158 115 -6 139 -20 132 -74 -6 -48 -30
-85 -68 -106 -38 -22 -37 -35 4 -27 50 11 77 33 98 80 37 83 -15 140 -130 144
-84 2 -141 16 -202 46 -45 23 -67 41 -35 29 23 -9 76 24 76 46 0 33 17 23 24
-14 4 -18 14 -40 24 -48 43 -38 64 -42 228 -39 l161 2 32 -27 c36 -30 73 -90
95 -152 17 -47 8 -54 -32 -26 -26 18 -28 31 -5 56 9 10 11 18 5 18 -6 0 -19
-12 -29 -26 -17 -26 -16 -27 11 -50 15 -13 36 -24 46 -24 33 0 34 -22 3 -50
-17 -15 -37 -30 -44 -32 -8 -3 3 -20 33 -49 47 -46 49 -50 79 -204 9 -46 14
-55 20 -40 6 16 8 12 8 -16 1 -20 4 -63 7 -96 l7 -60 -67 -13 c-73 -14 -177
-8 -238 14 -50 17 -54 22 -34 45 18 19 26 20 183 7 24 -2 40 0 37 5 -3 5 -33
9 -67 10 -62 1 -62 1 -25 13 20 6 39 14 43 17 3 4 -23 17 -59 29 -42 14 -66
27 -66 36 0 10 7 14 18 11 38 -11 113 -18 123 -12 6 4 -10 28 -39 59 -27 28
-54 62 -61 74 l-12 22 52 -20 c60 -24 80 -19 23 5 -85 36 -84 36 -84 14 0 -11
23 -45 52 -75 28 -30 48 -57 45 -60 -3 -4 -31 -3 -62 1 -48 6 -55 9 -55 29 0
12 -13 35 -29 50 -20 19 -29 38 -29 57 1 38 -23 63 -75 79 -58 17 -108 44
-132 70 l-20 22 45 -6 c84 -13 100 -18 94 -27 -6 -11 39 -2 68 12 9 5 27 9 40
9 22 -1 22 -1 -4 -16 -42 -22 -34 -34 25 -33 51 1 52 1 17 11 -29 8 -32 11
-17 19 28 16 19 29 -20 29 l-36 0 20 23 c21 23 43 60 43 73 0 4 -13 -11 -29
-33 -30 -42 -71 -76 -80 -68 -2 3 11 22 31 43 20 20 45 53 57 72 17 28 21 31
22 15 1 -17 2 -16 9 5 24 76 2 79 -40 5 -17 -31 -47 -72 -66 -92 -34 -36 -35
-36 -97 -30 -76 8 -139 25 -132 36 3 5 -5 8 -18 8 -33 -3 -192 101 -204 133
-14 36 -150 145 -231 185 -37 18 -98 58 -137 89 -147 117 -263 155 -480 157
-98 0 -125 3 -108 11 25 12 41 53 16 44 -8 -3 -19 -6 -25 -6 -5 0 -8 -6 -6
-12 3 -7 -5 -20 -16 -29 -20 -17 -20 -17 28 -24 27 -4 88 -5 136 -1 73 5 102
3 171 -15 121 -32 152 -47 271 -137 59 -44 116 -83 127 -87 13 -4 22 -18 26
-45 4 -21 19 -59 35 -84 19 -30 25 -46 17 -49 -9 -3 -9 -9 -1 -24 7 -12 8 -25
3 -35 -13 -23 26 -68 59 -68 54 0 72 11 72 40 0 23 5 29 31 34 26 5 38 0 74
-32 39 -34 160 -92 193 -92 6 0 12 -6 12 -13 0 -24 55 -67 119 -92 82 -32 94
-42 87 -75 -4 -22 2 -34 30 -61 35 -34 44 -64 22 -72 -10 -3 -10 -7 -1 -18 13
-16 -4 -79 -31 -108 -44 -48 -53 -168 -20 -268 12 -37 12 -54 -1 -122 -10 -50
-15 -122 -13 -189 l3 -109 -47 -69 c-56 -81 -101 -185 -118 -269 -6 -33 -16
-70 -22 -82 -6 -12 -8 -42 -6 -67 3 -25 -1 -71 -8 -103 -8 -32 -14 -79 -14
-105 0 -28 -9 -66 -21 -92 -21 -41 -21 -47 -8 -102 16 -66 24 -71 122 -73 36
-1 72 -8 97 -21 46 -24 133 -26 170 -5 23 13 18 13 -47 8 -60 -5 -80 -2 -122
16 -35 15 -70 21 -119 21 -69 0 -70 0 -83 31 -11 28 -10 36 6 63 41 70 48 93
60 202 7 63 15 117 17 120 3 2 18 -2 34 -11 16 -8 39 -15 51 -15 31 0 35 -13
16 -56 -22 -52 -40 -134 -35 -162 4 -27 122 -128 160 -136 50 -12 82 -28 82
-42 0 -8 5 -14 10 -14 19 0 10 46 -12 67 -13 12 -50 34 -83 51 -80 41 -149
111 -140 143 17 61 49 131 64 138 9 5 22 26 30 48 7 21 29 63 47 93 19 31 56
108 82 171 27 63 63 142 82 175 86 154 100 185 115 245 9 35 24 91 33 124 28
100 22 398 -12 597 -49 286 -94 414 -176 493 l-41 40 -179 0 c-175 0 -179 0
-204 24 -14 14 -26 35 -26 47 0 13 -5 26 -11 29 -6 4 -9 21 -7 38 4 42 -18 46
-25 3 -3 -19 -13 -46 -23 -61 -15 -23 -22 -26 -61 -21 -46 4 -159 69 -149 85
3 4 -10 24 -28 44 -38 41 -33 47 45 47 46 0 48 -1 37 -20 -10 -15 -10 -22 0
-32 19 -19 45 12 36 45 -6 25 -10 27 -58 27 -28 -1 -69 -7 -91 -15 -57 -21
-63 -20 -172 29 -54 25 -134 54 -178 67 -44 12 -133 37 -198 55 -124 36 -200
41 -285 22z m873 -597 c-3 -6 -14 -11 -23 -11 -13 0 -13 2 4 14 21 15 30 14
19 -3z m868 -186 c23 -103 21 -119 -7 -59 -13 28 -35 60 -50 71 l-26 21 27 21
c16 11 31 21 34 21 3 0 13 -34 22 -75z m24 -137 c-3 -8 -6 -5 -6 6 -1 11 2 17
5 13 3 -3 4 -12 1 -19z m10 -65 c-3 -10 -5 -4 -5 12 0 17 2 24 5 18 2 -7 2
-21 0 -30z m-213 -101 c54 -21 45 -32 -25 -32 -31 0 -39 4 -39 18 0 15 8 32
14 32 1 0 23 -8 50 -18z m221 -152 c3 -5 1 -10 -4 -10 -6 0 -11 5 -11 10 0 6
2 10 4 10 3 0 8 -4 11 -10z m-22 -172 c-3 -35 -12 -74 -20 -88 -13 -23 -14
-21 -8 30 4 30 8 64 10 75 2 11 4 26 4 33 1 6 5 12 10 12 6 0 7 -27 4 -62z
m-177 -65 c-10 -103 -28 -224 -32 -220 -7 7 -6 232 1 260 4 15 14 27 22 27 13
0 14 -11 9 -67z m141 -75 c-3 -8 -6 -5 -6 6 -1 11 2 17 5 13 3 -3 4 -12 1 -19z
m-10 -50 c-3 -8 -6 -5 -6 6 -1 11 2 17 5 13 3 -3 4 -12 1 -19z m-20 -75 c-9
-26 -18 -57 -20 -68 -4 -17 -5 -17 -6 4 -1 24 30 123 37 116 2 -2 -3 -25 -11
-52z m-260 -15 c-2 -13 -4 -5 -4 17 -1 22 1 32 4 23 2 -10 2 -28 0 -40z m-170
-520 c-3 -8 -6 -5 -6 6 -1 11 2 17 5 13 3 -3 4 -12 1 -19z m-10 -85 c-3 -10
-5 -4 -5 12 0 17 2 24 5 18 2 -7 2 -21 0 -30z m-26 -245 c-7 -55 -18 -90 -36
-116 -30 -44 -32 -24 -4 38 11 25 25 83 30 130 10 102 11 104 16 61 3 -19 0
-70 -6 -113z m265 -158 c75 -34 95 -58 26 -32 -52 20 -141 82 -156 110 -5 9 8
2 29 -17 21 -18 66 -46 101 -61z"/>
<path d="M273 2867 c12 -5 49 -7 81 -5 45 4 54 2 38 -5 -40 -18 -23 -27 50
-27 l72 0 -29 -30 c-16 -16 -26 -32 -23 -35 2 -3 28 2 56 10 56 17 113 58 98
72 -5 4 -11 2 -13 -5 -5 -13 -74 -52 -94 -52 -8 0 -6 7 4 18 10 10 17 22 17
25 0 4 -30 7 -67 7 l-68 1 35 19 35 18 -107 -1 c-69 -1 -99 -5 -85 -10z"/>
<path d="M1283 2858 c-2 -5 9 -8 26 -8 16 0 32 -6 34 -12 4 -10 6 -10 6 0 1 6
0 15 -1 19 -4 9 -59 10 -65 1z"/>
<path d="M1370 2805 c0 -8 4 -15 9 -15 5 0 11 7 15 15 3 9 0 15 -9 15 -8 0
-15 -7 -15 -15z"/>
<path d="M1037 2729 c12 -12 25 -20 28 -17 3 3 -7 13 -22 23 l-28 17 22 -23z"/>
<path d="M1435 2541 c7 -13 79 -51 95 -51 5 0 10 5 10 10 0 6 -7 10 -15 10 -9
0 -34 9 -56 21 -23 11 -38 16 -34 10z"/>
<path d="M1753 2223 c-83 -6 -67 -28 40 -56 71 -19 76 -5 5 15 l-53 15 43 8
c41 7 71 27 35 23 -10 -1 -42 -3 -70 -5z"/>
</g>
</svg>
