<?xml version="1.0" standalone="no"?>
<!DOCTYPE svg PUBLIC "-//W3C//DTD SVG 20010904//EN"
 "http://www.w3.org/TR/2001/REC-SVG-20010904/DTD/svg10.dtd">
<svg version="1.0" xmlns="http://www.w3.org/2000/svg"
 width="307.000000pt" height="272.000000pt" viewBox="0 0 307.000000 272.000000"
 preserveAspectRatio="xMidYMid meet">

<g transform="translate(0.000000,272.000000) scale(0.100000,-0.100000)"
fill="#000000" stroke="none">
<path d="M1090 2296 c-67 -25 -135 -64 -164 -95 -28 -29 -30 -38 -34 -120 -6
-134 18 -204 136 -392 32 -52 70 -123 85 -159 40 -103 79 -318 105 -587 6 -55
17 -107 29 -130 24 -47 75 -76 121 -68 28 5 32 3 32 -17 -1 -29 -25 -157 -32
-163 -2 -3 -23 39 -46 93 -23 53 -42 89 -42 79 0 -10 7 -34 16 -55 9 -20 27
-68 40 -107 23 -65 24 -75 13 -148 -20 -137 8 -245 76 -287 31 -19 198 -50
270 -49 28 0 29 1 11 14 -17 13 -14 15 34 21 72 10 43 24 -45 22 -65 -1 -67
-1 -25 -8 25 -4 35 -8 23 -8 -26 -2 -38 -18 -21 -26 7 -4 2 -4 -12 -1 -14 4
-61 11 -105 16 -103 13 -143 34 -172 89 -31 59 -31 174 2 340 14 69 28 154 31
190 4 36 18 94 31 130 14 36 31 85 38 109 8 24 29 60 48 80 53 56 143 212 156
270 6 29 11 100 11 160 0 104 1 108 28 133 15 13 51 39 81 57 52 32 55 32 68
15 27 -36 64 -180 70 -264 6 -98 -9 -173 -32 -163 -24 9 -43 -15 -62 -76 -20
-68 -29 -81 -55 -81 -48 0 -156 -147 -193 -261 -9 -30 -43 -135 -75 -234 -77
-236 -82 -315 -26 -371 26 -26 30 -34 17 -37 -19 -4 152 -37 224 -43 28 -2 6
4 -48 14 -54 10 -101 22 -105 28 -4 6 -22 16 -41 24 -66 26 -85 98 -57 215
l11 50 22 -35 c34 -56 59 -73 218 -154 83 -43 151 -81 153 -85 7 -21 -123 -28
-206 -12 -25 5 -40 5 -35 0 13 -13 153 -23 207 -15 83 13 64 33 -119 124 -159
80 -167 85 -200 136 l-33 53 55 174 c78 247 68 228 108 219 18 -4 47 -17 63
-29 16 -11 61 -26 100 -33 61 -10 75 -10 115 6 49 19 82 59 93 114 5 26 11 30
36 30 84 -3 142 119 84 177 -21 21 -31 24 -73 18 l-50 -5 -41 60 -41 61 19 45
c27 60 35 152 21 227 -15 72 -107 309 -127 325 -8 6 -12 14 -9 17 3 4 2 5 -1
2 -4 -2 -28 13 -53 34 -25 21 -82 57 -126 81 -116 62 -220 127 -298 184 -38
28 -72 51 -75 52 -4 0 -27 10 -52 22 -51 24 -117 27 -170 8z m272 -77 c16 -26
146 -113 263 -175 187 -99 257 -165 259 -244 1 -43 -24 -76 -84 -112 -19 -12
-53 -35 -75 -52 -21 -17 -41 -29 -44 -26 -5 6 -15 -12 -37 -65 -14 -35 -17
-38 -24 -20 -5 12 -9 14 -9 5 0 -8 4 -23 8 -33 6 -17 8 -17 19 5 7 13 18 41
26 63 14 39 15 37 15 -73 l1 -113 -62 33 c-35 18 -82 51 -105 74 -35 33 -43
47 -43 76 0 58 -11 96 -35 120 -13 13 -26 42 -30 68 -4 25 -25 88 -47 140 -60
141 -71 186 -64 253 9 91 39 125 68 76z m-196 -80 c27 -30 65 -43 76 -27 5 9
8 8 8 -6 0 -10 9 -35 19 -55 26 -48 85 -186 106 -247 12 -36 16 -82 16 -174
-1 -69 6 -179 14 -245 13 -107 22 -405 11 -394 -12 12 -28 192 -36 399 -5 161
-13 250 -23 282 -12 38 -12 49 -2 58 10 8 9 25 -6 83 -25 96 -38 124 -63 145
-11 9 -39 44 -61 76 -21 32 -54 70 -71 84 -18 14 -30 30 -28 34 8 13 20 9 40
-13z m57 -217 c14 -32 40 -118 58 -192 26 -109 33 -160 35 -265 l4 -130 -40
175 c-21 96 -44 212 -49 257 -10 80 -21 115 -61 183 -11 19 -20 46 -20 60 l1
25 23 -28 c13 -16 35 -54 49 -85z m-119 -89 c11 -38 21 -75 24 -83 7 -24 -23
21 -53 78 -23 45 -26 55 -14 63 22 14 23 13 43 -58z m-110 -8 c10 -25 43 -87
74 -138 31 -51 66 -120 78 -153 23 -63 65 -258 63 -297 0 -12 -13 39 -29 113
-34 163 -58 226 -138 353 -62 97 -92 151 -92 162 0 3 6 5 13 5 6 0 20 -21 31
-45z m973 -190 c25 -74 32 -189 15 -250 -7 -26 -9 -20 -15 42 -7 75 -44 203
-76 261 -16 31 -16 36 -2 67 l16 33 19 -42 c10 -22 29 -72 43 -111z m-517 -42
c0 -25 7 -60 16 -78 16 -34 94 -95 172 -134 34 -17 42 -26 38 -41 -4 -11 -8
-29 -11 -39 -6 -20 -32 -31 -76 -31 -62 0 -94 -59 -69 -126 7 -18 7 -30 -1
-40 -6 -7 -8 -18 -4 -24 4 -6 -2 -21 -13 -33 -11 -12 -25 -41 -31 -64 -26 -95
-43 -18 -34 147 4 71 0 142 -11 220 -9 63 -16 164 -16 225 l1 110 19 -24 c13
-15 20 -38 20 -68z m150 -400 c-29 -37 -54 -69 -55 -71 -2 -2 -8 13 -15 33
-16 48 -6 80 27 93 26 10 84 20 91 16 2 -2 -20 -33 -48 -71z m310 49 c0 -5 -9
-17 -20 -27 -22 -20 -26 -14 -10 16 11 19 30 26 30 11z m-25 -127 c14 -14 25
-34 25 -44 0 -11 7 -22 16 -25 10 -4 13 -13 9 -25 -4 -13 6 -29 35 -55 22 -20
40 -43 40 -51 0 -22 -31 -31 -41 -12 -5 8 -24 20 -42 26 -27 9 -33 16 -32 39
0 20 -7 31 -31 42 -25 13 -29 19 -20 33 8 12 7 22 -2 37 -10 16 -10 24 0 40 7
11 14 20 15 20 1 0 14 -11 28 -25z m205 -20 c0 -8 -2 -15 -4 -15 -2 0 -6 7
-10 15 -3 8 -1 15 4 15 6 0 10 -7 10 -15z m-361 -88 c-15 -84 -35 -109 -68
-88 -12 8 -12 14 4 38 23 37 65 93 69 93 2 0 0 -19 -5 -43z m-385 11 c3 -13 6
-36 5 -53 0 -25 -2 -27 -8 -10 -16 38 -23 85 -13 85 5 0 12 -10 16 -22z m533
-43 c2 -11 0 -14 -3 -7 -3 6 -12 12 -20 12 -8 0 -14 5 -14 11 0 19 35 4 37
-16z m-450 -67 c-3 -7 -5 -2 -5 12 0 14 2 19 5 13 2 -7 2 -19 0 -25z m528 -7
c3 -5 1 -12 -4 -15 -5 -3 -11 1 -15 9 -6 16 9 21 19 6z m-657 -114 c30 -27 84
-20 93 13 l7 25 1 -26 c1 -40 -63 -55 -103 -24 -22 17 -56 65 -56 80 0 6 8 -3
19 -20 10 -16 27 -38 39 -48z"/>
<path d="M1375 2140 c-8 -12 21 -80 34 -80 6 0 11 7 11 15 0 20 4 19 53 -11
36 -23 39 -24 23 -5 -11 11 -25 21 -32 21 -7 0 -19 10 -25 22 l-12 22 -9 -24
-9 -25 -15 28 c-8 15 -12 32 -9 37 3 6 4 10 1 10 -3 0 -7 -4 -11 -10z"/>
<path d="M1406 1921 c6 -62 29 -125 43 -117 5 3 12 -16 15 -42 8 -56 34 -140
46 -147 4 -3 -1 23 -12 58 -10 34 -22 105 -26 157 l-8 95 -8 -55 c-7 -54 -8
-54 -21 -30 -8 14 -15 39 -16 55 0 17 -5 41 -10 55 -6 18 -7 9 -3 -29z"/>
<path d="M1692 1961 c67 -10 74 -20 56 -75 -15 -46 -15 -46 8 -46 27 0 79 18
72 25 -3 3 -19 0 -37 -6 -18 -6 -34 -9 -36 -7 -2 2 1 21 7 41 16 52 -7 78 -71
76 l-46 -2 47 -6z"/>
<path d="M1561 1783 c-6 -32 -15 -71 -19 -88 -4 -16 -5 -46 -1 -65 l6 -35 2
35 c1 19 8 73 16 119 8 46 13 86 11 88 -2 3 -9 -22 -15 -54z"/>
<path d="M1785 1733 c-22 -19 -31 -31 -20 -25 19 9 74 63 64 62 -2 -1 -22 -17
-44 -37z"/>
<path d="M1622 1575 c0 -16 2 -22 5 -12 2 9 2 23 0 30 -3 6 -5 -1 -5 -18z"/>
<path d="M1541 1539 c-1 -15 8 -37 18 -50 l19 -24 7 28 c4 15 5 31 1 34 -3 4
-6 -3 -6 -15 0 -31 -18 -27 -26 6 -10 44 -12 49 -13 21z"/>
<path d="M1851 1565 c13 -21 28 -59 35 -84 11 -39 13 -41 13 -16 1 36 -29 104
-53 124 -13 11 -12 5 5 -24z"/>
</g>
</svg>
