<?xml version="1.0" standalone="no"?>
<!DOCTYPE svg PUBLIC "-//W3C//DTD SVG 20010904//EN"
 "http://www.w3.org/TR/2001/REC-SVG-20010904/DTD/svg10.dtd">
<svg version="1.0" xmlns="http://www.w3.org/2000/svg"
 width="307.000000pt" height="231.000000pt" viewBox="0 0 307.000000 231.000000"
 preserveAspectRatio="xMidYMid meet">
<metadata>
Created by potrace 1.16, written by Peter Selinger 2001-2019
</metadata>
<g transform="translate(0.000000,231.000000) scale(0.100000,-0.100000)"
fill="#000000" stroke="none">
<path d="M2532 1790 c-30 -18 -62 -56 -62 -73 0 -5 7 -3 17 4 15 13 15 12 5
-7 -8 -15 -18 -20 -34 -17 -67 13 -120 -55 -97 -125 17 -55 38 -74 76 -70 17
2 29 0 27 -4 -3 -4 0 -17 6 -28 9 -16 8 -20 -5 -20 -8 0 -15 -4 -15 -8 0 -5
-36 -23 -80 -41 -79 -33 -170 -100 -170 -126 0 -7 -26 -35 -57 -61 -32 -27
-94 -82 -138 -124 -44 -41 -120 -104 -169 -140 -105 -77 -214 -185 -222 -220
-13 -60 -38 -91 -113 -138 -42 -27 -98 -67 -124 -91 -93 -80 -111 -85 -294
-88 -89 -1 -169 -5 -177 -10 -8 -5 49 -7 128 -5 139 4 143 3 149 -17 6 -25 4
-25 -48 -7 -29 9 -66 11 -133 6 -84 -7 -96 -10 -124 -36 l-30 -29 4 35 c4 42
-1 42 -91 5 -35 -15 -74 -25 -87 -22 -13 2 -24 0 -24 -4 0 -15 58 -10 110 10
l49 19 -14 -29 c-8 -15 -15 -45 -15 -65 l0 -37 -247 5 c-137 2 -258 2 -271 -1
-13 -3 66 -7 175 -9 109 -2 245 -5 303 -7 58 -2 233 0 390 4 266 8 290 10 355
33 123 44 204 90 395 227 58 41 128 88 155 103 l50 28 -45 -7 c-77 -13 -150
-7 -181 16 -16 12 -32 21 -37 21 -17 0 -72 67 -92 113 -32 72 -21 89 131 202
72 53 144 112 162 132 18 20 59 58 92 86 l60 50 5 -49 6 -49 4 52 c3 29 1 49
-4 46 -5 -4 -6 -1 -2 6 6 9 12 9 25 -3 23 -21 27 -20 65 9 18 14 57 39 87 55
30 16 49 30 43 30 -9 0 -83 -42 -145 -83 -24 -16 -27 -16 -40 -1 -11 14 -10
22 7 53 17 28 40 46 115 83 52 26 119 53 149 60 52 12 91 37 102 69 5 11 10 9
23 -8 17 -24 40 -30 50 -13 4 6 -4 9 -17 7 -19 -2 -24 5 -32 36 -8 30 -7 40 6
50 25 18 26 62 3 87 -13 14 -19 35 -19 61 1 21 -2 39 -7 39 -19 0 -8 28 14 34
40 11 57 7 57 -13 0 -11 6 -22 13 -25 9 -5 9 -7 -1 -12 -6 -3 -9 -10 -6 -15 3
-6 1 -16 -6 -24 -14 -17 -10 -135 6 -135 17 0 40 30 67 87 13 29 30 59 37 68
16 19 -5 46 -55 69 -45 22 -154 19 -193 -4z m10 -132 c-7 -7 -12 -8 -12 -2 0
6 3 14 7 17 3 4 9 5 12 2 2 -3 -1 -11 -7 -17z m-161 -25 c-12 -20 -14 -14 -5
12 4 9 9 14 11 11 3 -2 0 -13 -6 -23z m319 -33 c-6 -11 -13 -20 -16 -20 -2 0
0 9 6 20 6 11 13 20 16 20 2 0 0 -9 -6 -20z m-193 -42 c-3 -7 -5 -2 -5 12 0
14 2 19 5 13 2 -7 2 -19 0 -25z m-816 -797 c-6 -11 -11 -28 -11 -39 0 -11 -9
-22 -20 -25 -12 -3 -20 -14 -20 -25 0 -12 -14 -31 -32 -44 -18 -12 -64 -54
-103 -93 -68 -69 -189 -145 -230 -145 -10 0 -24 -8 -31 -17 -12 -16 -15 -16
-24 -3 -15 23 -12 28 23 35 47 11 74 27 149 88 37 30 95 72 127 92 67 40 101
80 101 119 0 32 73 119 78 93 2 -9 -2 -25 -7 -36z m-2 -177 c-13 -14 -33 -30
-44 -35 -11 -6 -2 6 20 25 47 42 58 47 24 10z m-198 -151 c-10 -21 -28 -47
-40 -57 -21 -19 -21 -19 -21 5 0 15 13 36 37 56 21 18 39 32 41 33 1 0 -6 -17
-17 -37z m64 -13 c-3 -5 -11 -10 -16 -10 -6 0 -7 5 -4 10 3 6 11 10 16 10 6 0
7 -4 4 -10z m178 -28 c-27 -20 -131 -79 -121 -67 9 9 131 84 138 84 3 0 -5 -7
-17 -17z m-353 -22 c0 -14 -49 -32 -62 -24 -6 4 4 13 23 19 19 7 35 13 37 14
1 0 2 -4 2 -9z m25 -60 c-3 -5 -16 -10 -28 -9 -21 0 -21 1 -2 9 28 12 37 12
30 0z m-102 -77 c-29 -2 -78 -2 -110 0 -32 2 -8 3 52 3 61 0 87 -1 58 -3z"/>
<path d="M2809 1703 c6 -12 11 -34 11 -50 0 -15 5 -35 11 -43 8 -12 9 -10 5
10 -3 14 -6 34 -6 46 0 11 -7 29 -16 40 -15 18 -15 18 -5 -3z"/>
<path d="M2780 1610 c-10 -6 -11 -10 -3 -10 7 0 10 -7 7 -15 -4 -9 0 -15 10
-15 10 0 15 7 13 20 -4 26 -10 31 -27 20z"/>
<path d="M2846 1565 c4 -16 7 -36 7 -42 0 -7 4 -13 9 -13 12 0 9 21 -8 55
l-14 30 6 -30z"/>
<path d="M2844 1492 c3 -6 2 -13 -4 -17 -6 -4 -8 -10 -5 -15 10 -16 -25 -70
-45 -70 -29 0 -72 19 -97 42 -13 12 -23 17 -23 10 0 -6 11 -19 24 -29 l24 -19
-38 -22 c-21 -12 -49 -36 -61 -54 -20 -29 -16 -27 30 15 56 50 59 51 134 47
41 -2 47 1 47 18 0 12 4 23 9 26 13 8 19 66 8 73 -6 3 -7 1 -3 -5z"/>
<path d="M2510 1320 c30 -10 56 -17 58 -16 5 6 -77 36 -96 36 -9 -1 8 -9 38
-20z"/>
<path d="M2428 1323 c7 -3 16 -2 19 1 4 3 -2 6 -13 5 -11 0 -14 -3 -6 -6z"/>
<path d="M2585 1167 c0 -67 -5 -110 -14 -126 -9 -16 -16 -85 -22 -205 -4 -103
-17 -233 -29 -301 -32 -174 -37 -225 -28 -274 14 -80 78 -124 204 -142 98 -13
106 -6 12 10 -84 15 -145 39 -171 68 -17 20 -17 20 115 17 73 -1 148 0 167 3
41 7 35 11 -87 57 -167 63 -172 66 -172 106 0 19 4 51 10 70 5 19 13 67 19
105 5 39 14 84 19 100 6 17 23 96 38 176 25 140 26 148 10 201 -8 30 -25 63
-36 73 -15 14 -20 31 -21 74 0 31 -3 64 -7 73 -4 10 -7 -29 -7 -85z m-9 -601
c-4 -40 -11 -88 -16 -107 -6 -19 -10 -53 -10 -76 0 -40 3 -44 43 -64 23 -12
78 -37 122 -55 69 -28 77 -33 55 -39 -14 -3 -46 -2 -70 4 -27 5 -65 6 -95 1
-69 -12 -72 -12 -89 6 -22 21 -21 99 3 215 10 52 22 115 25 142 5 33 12 47 23
47 14 0 15 -10 9 -74z"/>
<path d="M2278 1154 c23 -28 56 -57 72 -64 27 -11 30 -17 25 -40 -3 -15 -7
-59 -7 -97 -1 -66 -3 -70 -29 -82 -15 -6 -51 -38 -81 -69 -29 -31 -80 -83
-113 -116 -69 -68 -60 -68 81 -1 59 29 103 58 127 84 27 30 37 36 41 24 3 -8
6 -126 6 -261 1 -365 22 -455 110 -479 53 -14 180 -17 180 -4 0 5 29 6 65 3
66 -5 80 3 50 28 -13 11 -14 10 -9 -4 6 -16 0 -17 -76 -10 -61 5 -81 4 -76 -5
9 -13 -7 -14 -93 -1 -123 17 -131 48 -140 493 -5 265 -9 329 -20 336 -11 7
-13 29 -8 108 4 54 9 112 12 128 l5 30 -15 -32 c-8 -18 -18 -33 -21 -33 -3 0
-33 26 -67 58 l-61 57 42 -51z"/>
<path d="M2010 1014 c0 -23 -2 -25 -16 -14 -13 11 -16 10 -21 -9 -4 -16 -11
-20 -24 -16 -17 6 -19 1 -17 -32 1 -35 1 -36 5 -7 3 26 8 31 24 27 13 -4 19 0
19 11 0 20 9 20 29 2 15 -14 16 -11 13 25 -5 44 -12 53 -12 13z"/>
<path d="M2318 1023 c6 -2 18 -2 25 0 6 3 1 5 -13 5 -14 0 -19 -2 -12 -5z"/>
<path d="M2215 930 c10 -11 20 -20 22 -20 2 0 -2 9 -9 20 -7 11 -17 20 -22 20
-5 0 -1 -9 9 -20z"/>
<path d="M2248 933 c7 -3 16 -2 19 1 4 3 -2 6 -13 5 -11 0 -14 -3 -6 -6z"/>
<path d="M2100 866 c0 -8 4 -18 10 -21 5 -3 7 0 4 9 -3 8 2 16 13 19 14 4 14
5 -4 6 -14 1 -23 -5 -23 -13z"/>
<path d="M1780 845 c0 -5 5 -17 10 -25 5 -8 10 -10 10 -5 0 6 -5 17 -10 25 -5
8 -10 11 -10 5z"/>
<path d="M2137 829 c7 -7 15 -10 18 -7 3 3 -2 9 -12 12 -14 6 -15 5 -6 -5z"/>
<path d="M2020 794 c0 -10 52 -56 57 -51 2 3 -8 14 -22 25 l-26 21 38 4 38 4
-42 1 c-24 1 -43 -1 -43 -4z"/>
<path d="M2128 783 c6 -2 18 -2 25 0 6 3 1 5 -13 5 -14 0 -19 -2 -12 -5z"/>
<path d="M1900 770 c-18 -12 -2 -12 25 0 13 6 15 9 5 9 -8 0 -22 -4 -30 -9z"/>
<path d="M1965 760 c27 -12 43 -12 25 0 -8 5 -22 9 -30 9 -10 0 -8 -3 5 -9z"/>
<path d="M1982 730 c20 -11 42 -28 48 -37 8 -12 10 -13 7 -3 -4 17 -64 60 -81
60 -6 -1 6 -10 26 -20z"/>
<path d="M2018 743 c7 -3 16 -2 19 1 4 3 -2 6 -13 5 -11 0 -14 -3 -6 -6z"/>
<path d="M1864 706 c11 -9 24 -16 30 -16 12 0 7 5 -24 19 -24 11 -24 11 -6 -3z"/>
<path d="M1918 683 c7 -3 16 -2 19 1 4 3 -2 6 -13 5 -11 0 -14 -3 -6 -6z"/>
<path d="M1968 673 c12 -2 30 -2 40 0 9 3 -1 5 -23 4 -22 0 -30 -2 -17 -4z"/>
<path d="M447 376 c-27 -33 -53 -50 -104 -70 -61 -23 -158 -75 -142 -76 3 0
58 24 121 54 85 40 121 63 142 90 31 41 54 45 82 15 19 -21 66 -49 81 -49 4 0
-8 10 -27 21 -19 12 -41 30 -48 40 -23 34 -64 24 -105 -25z"/>
</g>
</svg>
