<?xml version="1.0" standalone="no"?>
<!DOCTYPE svg PUBLIC "-//W3C//DTD SVG 20010904//EN"
 "http://www.w3.org/TR/2001/REC-SVG-20010904/DTD/svg10.dtd">
<svg version="1.0" xmlns="http://www.w3.org/2000/svg"
 width="307.000000pt" height="231.000000pt" viewBox="0 0 307.000000 231.000000"
 preserveAspectRatio="xMidYMid meet">
<metadata>
Created by potrace 1.16, written by Peter Selinger 2001-2019
</metadata>
<g transform="translate(0.000000,231.000000) scale(0.100000,-0.100000)"
fill="#000000" stroke="none">
<path d="M2551 1715 c-53 -45 -64 -122 -20 -145 16 -9 17 -14 6 -30 -6 -11
-18 -20 -26 -20 -10 0 -8 -7 8 -24 l23 -24 -22 -12 c-58 -31 -144 -53 -236
-60 -126 -10 -231 -44 -442 -144 -162 -77 -217 -95 -289 -96 -58 0 -138 -32
-201 -80 -33 -25 -89 -52 -151 -74 -113 -39 -138 -52 -271 -130 -112 -67 -159
-82 -299 -96 -107 -10 -177 -34 -218 -72 -12 -11 -20 -24 -18 -29 10 -15 -123
-51 -219 -59 -134 -11 -141 -18 -141 -143 -1 -51 -5 -121 -9 -157 -7 -59 -6
-68 14 -93 12 -15 26 -27 32 -27 5 0 -2 14 -17 32 -25 29 -27 37 -19 83 4 27
9 91 10 140 1 50 3 98 3 108 1 27 61 47 136 47 45 0 91 8 142 25 42 14 77 24
78 23 28 -39 66 -100 63 -102 -5 -4 -150 -44 -185 -51 -40 -8 -79 -38 -99 -77
-8 -16 -31 -50 -50 -75 -40 -53 -42 -66 -11 -97 l24 -24 -31 -15 c-17 -9 -24
-16 -16 -16 22 -1 82 38 75 49 -3 5 -12 7 -19 4 -8 -3 -21 5 -30 18 -23 32
-20 42 6 24 25 -18 75 -21 98 -6 12 8 10 14 -13 38 -30 32 -35 68 -12 111 14
27 68 61 97 61 8 0 50 9 93 21 l79 20 17 -22 16 -22 124 22 c68 13 153 27 189
32 36 6 112 19 170 29 58 11 130 22 160 26 102 11 247 44 296 65 89 39 257
134 286 161 24 22 28 34 28 79 0 93 -58 176 -154 220 -40 18 -41 19 -11 19 50
0 100 18 241 86 222 106 304 134 435 149 45 6 66 3 101 -13 59 -26 115 -76
127 -115 6 -18 15 -104 21 -192 8 -114 18 -186 36 -249 18 -65 27 -129 34
-242 7 -131 12 -162 33 -208 38 -82 77 -100 232 -102 l120 -2 -120 7 c-100 5
-126 10 -156 29 -70 43 -83 81 -99 294 -7 94 -20 178 -35 235 -14 48 -24 99
-24 113 1 21 2 19 10 -10 6 -19 32 -118 60 -220 81 -300 84 -304 222 -306 l92
-2 -85 7 c-47 5 -93 11 -102 15 -29 13 -59 72 -83 164 -13 48 -43 161 -68 252
-32 120 -47 195 -52 270 -6 98 -6 107 15 132 11 15 39 33 61 39 21 7 37 14 35
16 -9 9 -80 -17 -100 -36 l-22 -20 -17 32 c-10 18 -42 50 -72 72 -30 22 -55
42 -55 46 0 3 19 12 43 19 23 7 60 21 82 33 23 12 56 19 77 18 21 -1 47 3 58
9 19 10 20 9 14 -15 -6 -26 9 -55 29 -55 6 0 3 6 -7 13 -13 9 -16 20 -12 34 8
25 46 71 46 55 0 -5 8 -8 19 -5 20 5 33 27 51 87 8 23 20 40 31 43 13 4 18 11
14 23 -9 29 12 33 46 9 22 -15 27 -25 20 -32 -6 -6 -11 -19 -11 -28 0 -10 -12
-21 -27 -27 -36 -12 -93 -65 -93 -87 0 -9 -4 -13 -10 -10 -5 3 -10 1 -10 -4 0
-6 5 -12 10 -12 6 -1 16 -2 23 -3 17 -3 97 24 123 41 12 7 29 11 38 7 12 -5
16 0 16 19 0 54 -14 89 -48 120 -19 18 -42 40 -52 50 -23 24 -78 38 -118 31
-39 -8 -52 -24 -20 -25 20 0 21 -1 4 -8 -13 -5 -28 1 -50 21 -38 35 -75 36
-115 3z m-951 -596 c25 -11 60 -35 78 -52 38 -36 75 -102 69 -120 -3 -7 -8 0
-12 16 -4 16 -36 52 -77 87 -67 58 -71 60 -125 60 -57 0 -121 -23 -130 -47 -3
-7 -9 -13 -15 -13 -5 0 -26 -13 -46 -28 -20 -16 -62 -37 -92 -47 -54 -17 -114
-44 -175 -78 -59 -32 -150 -70 -163 -68 -8 1 -21 -4 -30 -12 -30 -27 -138 -57
-205 -57 -37 0 -81 -7 -103 -16 -22 -9 -51 -16 -65 -16 -18 0 -30 -7 -39 -24
-10 -18 -16 -21 -27 -13 -35 30 53 64 206 79 132 14 176 30 330 118 77 44 161
84 220 103 65 21 113 44 148 71 58 44 133 77 178 77 17 0 50 -9 75 -20z m-21
-103 c-2 -2 -15 -9 -29 -16 -23 -12 -24 -12 -11 3 7 10 20 17 29 17 8 0 13 -2
11 -4z m31 -176 c-14 -11 -29 -20 -35 -20 -5 0 4 9 20 20 38 25 48 25 15 0z
m-225 -116 c-31 -23 -81 -32 -230 -39 -99 -4 -166 -13 -230 -30 -268 -72 -444
-103 -452 -79 -2 6 16 11 47 13 28 1 129 22 225 46 153 39 200 47 373 59 113
9 214 21 237 30 51 19 54 19 30 0z m-565 -24 c-8 -5 -22 -9 -30 -9 -10 0 -8 3
5 9 27 12 43 12 25 0z m-65 -20 c-11 -5 -27 -9 -35 -9 -9 0 -8 4 5 9 11 5 27
9 35 9 9 0 8 -4 -5 -9z m-75 -20 c-34 -11 -60 -11 -35 0 11 5 29 8 40 8 16 0
15 -2 -5 -8z m208 -87 c-10 -2 -28 -2 -40 0 -13 2 -5 4 17 4 22 1 32 -1 23 -4z
m-91 -9 c-3 -3 -12 -4 -19 -1 -8 3 -5 6 6 6 11 1 17 -2 13 -5z m-270 -50 c-3
-3 -12 -4 -19 -1 -8 3 -5 6 6 6 11 1 17 -2 13 -5z m-317 -199 c9 -6 9 -10 -1
-16 -21 -13 -53 -11 -74 5 -18 13 -18 14 6 43 l24 30 17 -28 c9 -15 22 -30 28
-34z"/>
<path d="M2941 1481 c-1 -8 -13 -32 -27 -53 -15 -21 -24 -41 -21 -44 8 -9 59
84 54 98 -4 9 -6 9 -6 -1z"/>
<path d="M2840 1420 c0 -6 6 -10 13 -11 6 0 4 -3 -5 -7 -12 -5 -15 -11 -8 -22
10 -17 15 -14 24 16 4 15 2 24 -9 28 -8 3 -15 1 -15 -4z"/>
<path d="M2661 1345 c-1 -41 20 -84 54 -109 16 -12 24 -11 59 9 22 12 42 28
44 35 3 8 -9 4 -26 -8 -16 -12 -40 -23 -52 -24 -29 -4 -62 39 -71 94 l-6 43
-2 -40z"/>
<path d="M2858 1319 c-9 -16 -14 -29 -9 -29 8 0 34 50 29 56 -2 1 -11 -11 -20
-27z"/>
<path d="M2245 1309 c-4 -6 -5 -12 -2 -15 2 -3 7 2 10 11 7 17 1 20 -8 4z"/>
<path d="M2231 1264 c0 -11 3 -14 6 -6 3 7 2 16 -1 19 -3 4 -6 -2 -5 -13z"/>
<path d="M2303 1208 c4 -29 9 -64 13 -78 6 -21 5 -23 -7 -15 -8 6 -8 3 2 -5 9
-9 23 -38 33 -65 9 -28 21 -57 26 -65 7 -11 3 -18 -13 -28 -21 -12 -21 -13 -1
-7 19 5 24 -3 47 -77 14 -46 48 -169 76 -274 64 -243 106 -361 143 -398 29
-29 29 -29 129 -24 55 3 105 10 112 17 6 6 30 11 53 11 64 0 97 19 59 34 -8 3
-14 0 -12 -7 1 -8 -21 -13 -73 -15 -44 -2 -77 -8 -82 -15 -5 -8 -36 -12 -88
-12 -74 0 -83 2 -100 25 -10 13 -23 40 -29 60 -6 19 -29 96 -52 170 -23 74
-61 213 -85 308 -24 96 -52 193 -63 217 -33 75 -71 211 -71 254 0 24 -5 41
-11 41 -8 0 -10 -16 -6 -52z"/>
<path d="M1840 1119 c-7 -11 -10 -23 -7 -25 2 -2 9 7 15 21 14 30 7 33 -8 4z"/>
<path d="M1762 1060 c0 -14 2 -19 5 -12 2 6 2 18 0 25 -3 6 -5 1 -5 -13z"/>
<path d="M2202 1030 c8 -12 15 -15 19 -8 4 6 13 7 20 4 8 -4 5 0 -5 8 -29 24
-50 21 -34 -4z"/>
<path d="M2070 1009 c0 -5 5 -7 11 -3 6 3 25 -4 42 -16 l32 -21 -28 25 c-29
27 -57 34 -57 15z"/>
<path d="M1840 971 c0 -5 7 -11 14 -14 10 -4 13 -1 9 9 -6 15 -23 19 -23 5z"/>
<path d="M1900 957 c0 -6 75 -57 84 -57 5 0 -6 10 -25 23 -48 33 -59 39 -59
34z"/>
<path d="M1989 931 c11 -15 18 -31 14 -35 -3 -3 -1 -6 5 -6 16 0 15 11 -3 34
-12 16 -12 22 -2 28 8 5 4 8 -11 8 l-23 0 20 -29z"/>
<path d="M2188 953 c7 -3 16 -2 19 1 4 3 -2 6 -13 5 -11 0 -14 -3 -6 -6z"/>
<path d="M1900 930 c14 -12 33 -31 43 -43 l18 -22 -10 22 c-6 12 -26 31 -43
43 l-33 22 25 -22z"/>
<path d="M2293 933 c9 -2 23 -2 30 0 6 3 -1 5 -18 5 -16 0 -22 -2 -12 -5z"/>
<path d="M2160 914 c-16 -10 -18 -13 -5 -8 11 4 40 10 65 14 l45 7 -40 1 c-22
1 -51 -6 -65 -14z"/>
<path d="M1826 899 c6 -11 64 -42 69 -37 2 2 -14 13 -36 25 -21 12 -37 17 -33
12z"/>
<path d="M2065 869 c-33 -16 -73 -30 -90 -30 -24 -1 -25 -3 -7 -6 28 -6 109
21 142 47 33 26 27 24 -45 -11z"/>
<path d="M1775 840 c19 -8 113 -14 104 -6 -2 2 -31 6 -64 9 -36 3 -52 2 -40
-3z"/>
<path d="M2941 363 c-10 -11 -25 -13 -55 -10 -36 5 -98 -7 -71 -14 6 -1 -21
-6 -60 -10 l-70 -7 88 2 c48 0 91 6 95 11 4 6 26 10 50 11 45 1 61 9 46 23 -5
6 -15 3 -23 -6z"/>
</g>
</svg>
