<?xml version="1.0" standalone="no"?>
<!DOCTYPE svg PUBLIC "-//W3C//DTD SVG 20010904//EN"
 "http://www.w3.org/TR/2001/REC-SVG-20010904/DTD/svg10.dtd">
<svg version="1.0" xmlns="http://www.w3.org/2000/svg"
 width="324.000000pt" height="165.000000pt" viewBox="0 0 324.000000 165.000000"
 preserveAspectRatio="xMidYMid meet">
<metadata>
Created by potrace 1.16, written by Peter Selinger 2001-2019
</metadata>
<g transform="translate(0.000000,165.000000) scale(0.100000,-0.100000)"
fill="#000000" stroke="none">
<path d="M1555 946 c-57 -18 -77 -30 -141 -86 -32 -28 -94 -71 -138 -97 -45
-25 -108 -72 -141 -103 -97 -93 -167 -117 -265 -91 -19 5 -66 12 -105 15 -244
20 -325 35 -407 77 -51 26 -76 24 -90 -6 -6 -14 -19 -25 -29 -25 -22 0 -54
-41 -70 -88 -6 -20 -30 -62 -54 -92 -23 -30 -47 -65 -53 -77 -15 -27 -16 -80
-2 -88 6 -4 7 5 4 23 -7 34 14 79 62 136 19 22 43 65 54 95 12 31 28 62 37 69
27 20 69 14 132 -18 64 -32 115 -46 203 -55 l56 -6 -14 -34 c-8 -19 -14 -46
-14 -61 0 -25 -2 -26 -42 -19 -24 4 -68 13 -99 21 -75 18 -119 18 -148 -3 -13
-9 -50 -29 -81 -44 -32 -15 -62 -34 -66 -41 -6 -10 -5 -11 7 -1 9 7 32 20 53
28 36 15 36 15 31 -8 -3 -12 -2 -34 4 -49 9 -23 8 -25 -12 -21 -12 3 -32 15
-45 26 -12 12 -22 15 -22 9 0 -15 59 -52 83 -52 20 0 20 4 8 46 -7 24 -5 38 8
58 43 65 73 69 238 26 64 -17 141 -33 172 -36 52 -6 112 -21 296 -77 39 -11
72 -24 75 -29 3 -4 21 3 40 15 19 13 58 32 85 42 84 31 248 110 310 150 71 44
248 222 276 276 30 59 21 109 -19 109 -11 0 -13 -8 -9 -29 4 -19 2 -31 -7 -34
-9 -4 -11 2 -8 20 4 23 2 25 -22 21 -20 -4 -26 -2 -24 11 5 26 -58 28 -72 2
-9 -18 -13 -19 -30 -8 -14 8 -25 9 -34 2 -8 -6 -40 -29 -73 -53 -32 -24 -103
-73 -158 -109 -55 -37 -126 -88 -158 -115 -32 -26 -66 -48 -77 -48 -10 0 -27
-11 -38 -24 -12 -16 -22 -22 -29 -15 -9 9 -76 16 -213 22 -44 2 -55 -1 -58
-15 -2 -9 5 -18 15 -21 11 -3 8 -5 -10 -6 -28 -1 -29 0 -22 42 4 23 8 43 10
45 1 1 37 -3 81 -10 43 -7 111 -13 149 -13 86 0 139 27 232 120 34 33 93 78
131 99 38 21 102 64 141 97 40 32 90 64 112 70 22 7 39 18 39 27 0 24 126 12
186 -19 46 -24 49 -27 46 -60 -2 -26 4 -44 27 -73 24 -29 29 -44 24 -67 -3
-17 -1 -29 5 -29 20 0 5 69 -22 100 -29 35 -39 103 -11 80 8 -7 35 -41 60 -75
38 -54 61 -75 82 -75 2 0 -11 15 -29 33 -18 18 -52 59 -76 91 -75 101 -210
142 -337 102z m-1185 -301 c62 -31 134 -50 227 -60 56 -5 70 -10 66 -21 -3 -8
0 -14 7 -14 10 0 10 -3 0 -15 -16 -19 -51 -20 -44 -2 4 11 -15 15 -85 20 -75
5 -104 12 -170 41 -43 20 -84 36 -90 36 -14 0 -14 13 1 28 17 17 33 15 88 -13z
m921 -74 c-11 -19 -77 -81 -88 -81 -11 0 82 98 95 100 1 0 -2 -8 -7 -19z m58
-106 c-9 -8 -119 -55 -119 -50 0 3 24 16 53 29 49 23 76 32 66 21z m-674 -83
c-6 -7 -45 19 -45 29 0 5 11 2 24 -8 13 -10 23 -19 21 -21z m463 23 c-2 -1
-14 -8 -28 -15 -25 -13 -25 -13 -6 8 10 12 23 19 28 16 5 -3 8 -7 6 -9z m-271
-31 c-3 -3 -12 -4 -19 -1 -8 3 -5 6 6 6 11 1 17 -2 13 -5z"/>
<path d="M2063 793 c-40 -5 -51 -37 -35 -97 8 -31 8 -43 -1 -48 -8 -5 -7 -8 3
-8 8 0 36 -38 62 -83 26 -45 69 -109 97 -142 28 -33 68 -85 90 -115 50 -71 55
-75 132 -104 46 -17 92 -25 167 -28 56 -3 102 -4 102 -2 0 10 -34 34 -48 33
-14 0 -13 -2 3 -10 13 -6 -11 -8 -75 -5 -137 6 -199 32 -253 105 -22 31 -64
83 -93 116 -95 110 -184 271 -184 333 0 20 4 31 10 27 6 -3 10 -1 10 4 0 19
102 12 149 -9 47 -22 78 -44 218 -162 50 -42 107 -85 125 -95 57 -31 122 -49
148 -42 22 6 20 7 -11 8 -57 2 -144 52 -290 169 -176 141 -233 168 -326 155z"/>
<path d="M2843 755 c-31 -31 -35 -40 -30 -70 3 -19 1 -37 -4 -41 -23 -14 -59
-86 -59 -117 0 -18 -5 -38 -11 -44 -7 -7 -3 -9 15 -6 15 3 26 1 26 -5 0 -6 10
-16 21 -23 18 -9 24 -8 31 5 13 23 59 21 65 -4 7 -27 21 -25 25 3 4 27 48 38
48 12 0 -9 4 -14 9 -11 4 3 23 -5 41 -19 27 -20 36 -22 59 -13 14 6 38 11 53
13 23 1 25 -1 15 -16 -8 -13 -13 -15 -19 -6 -5 7 -8 2 -8 -15 0 -19 -12 -36
-42 -61 -86 -69 -172 -97 -184 -59 -3 9 -15 41 -26 70 -15 40 -18 56 -9 65 18
18 13 29 -9 17 -26 -14 -25 -35 1 -99 12 -28 19 -54 16 -57 -3 -3 -21 6 -40
20 -18 14 -48 29 -65 32 -26 5 -32 11 -32 33 0 24 -33 91 -45 91 -2 0 4 -15
15 -32 22 -37 26 -97 8 -118 -7 -8 -3 -6 9 4 19 15 27 17 54 7 18 -6 48 -23
68 -38 72 -55 172 -20 289 101 80 84 91 114 72 198 -16 65 -78 133 -113 123
-15 -4 -18 -3 -9 3 9 6 6 12 -13 20 -14 7 -33 12 -41 12 -8 0 -20 11 -26 25
-7 15 -17 24 -25 21 -8 -3 -11 -1 -8 4 4 6 -12 10 -40 10 -40 0 -52 -5 -82
-35z m96 21 c-2 -1 -19 -8 -36 -14 -37 -12 -45 -6 -10 8 22 9 54 13 46 6z
m-30 -89 c-41 -28 -73 -41 -64 -27 7 11 75 49 89 50 5 0 -6 -10 -25 -23z m171
-60 c0 -11 7 -25 15 -31 9 -7 12 -19 9 -33 -9 -34 -34 -29 -34 6 0 36 -22 56
-46 43 -12 -7 -24 -6 -35 1 -13 8 -25 7 -46 -3 -30 -15 -103 -20 -103 -7 0 4
13 7 28 7 15 0 33 5 38 10 6 6 33 19 60 29 59 21 114 11 114 -22z m99 -19 l11
-33 -20 24 c-21 25 -26 41 -11 41 5 0 14 -15 20 -32z m-99 -170 c0 -5 -4 -8
-10 -8 -5 0 -10 10 -10 23 0 18 2 19 10 7 5 -8 10 -18 10 -22z"/>
<path d="M2208 680 c17 -25 41 -76 53 -115 32 -103 85 -198 138 -248 51 -48
62 -51 221 -62 47 -4 101 -12 120 -18 l35 -12 -65 -6 -65 -6 73 -1 c51 -1 71
1 66 9 -10 16 -69 39 -101 39 -16 0 -23 4 -17 8 7 4 -20 7 -60 7 -90 0 -132
23 -232 127 -66 68 -73 80 -103 169 -23 70 -40 104 -63 125 l-31 29 31 -45z
m262 -384 c18 -11 20 -16 8 -16 -24 0 -97 60 -121 100 -19 33 -17 32 34 -16
30 -28 65 -58 79 -68z"/>
<path d="M1950 670 c0 -5 6 -10 14 -10 8 0 17 -6 19 -12 4 -10 6 -10 6 -1 1 7
-8 17 -19 23 -14 7 -20 7 -20 0z"/>
<path d="M1777 596 c-10 -28 -13 -60 -10 -83 5 -29 4 -35 -8 -27 -11 6 -10 2
2 -16 16 -25 89 -71 101 -64 8 5 134 -49 212 -92 65 -35 180 -64 196 -48 5 5
-14 10 -43 11 -40 1 -77 15 -181 67 -72 36 -149 69 -171 74 l-40 8 1 59 c1 49
0 51 -3 13 -4 -46 -16 -63 -26 -35 -2 6 -3 4 -2 -5 2 -10 -1 -18 -6 -18 -17 0
-22 54 -12 124 5 39 9 72 8 74 -2 2 -10 -17 -18 -42z"/>
<path d="M1692 593 c-2 -47 -25 -60 -37 -22 -5 16 -10 18 -21 8 -8 -6 -14 -17
-13 -23 0 -7 2 -6 6 2 7 17 23 15 23 -3 0 -8 7 -15 16 -15 9 0 29 -9 45 -21
27 -19 49 -19 49 1 0 5 -7 7 -15 4 -8 -4 -15 -1 -15 5 0 6 -6 10 -12 9 -9 -2
-15 15 -19 47 l-6 50 -1 -42z"/>
<path d="M1861 488 c-19 -52 18 -61 52 -14 18 27 19 29 2 16 -17 -14 -18 -13
-12 3 10 26 0 20 -18 -10 l-16 -28 4 28 c5 33 -1 35 -12 5z"/>
<path d="M1990 439 c-6 -11 -10 -25 -7 -32 2 -6 9 3 15 21 12 36 8 42 -8 11z"/>
<path d="M2016 431 c-27 -30 -15 -44 14 -18 14 12 19 18 11 12 -12 -8 -13 -6
-8 8 8 22 4 22 -17 -2z"/>
<path d="M1942 425 c-11 -12 -10 -15 3 -15 8 0 15 7 15 15 0 18 -2 18 -18 0z"/>
<path d="M2072 378 c-18 -18 -14 -27 9 -23 28 6 37 15 15 15 -9 0 -14 5 -11
10 8 14 2 13 -13 -2z"/>
<path d="M131 322 c-1 -7 4 -22 9 -33 10 -17 7 -19 -22 -20 l-33 -1 38 -10
c28 -8 42 -7 50 1 9 9 8 15 -6 22 -10 6 -22 20 -27 32 -5 12 -9 16 -9 9z"/>
</g>
</svg>
