<?xml version="1.0" standalone="no"?>
<!DOCTYPE svg PUBLIC "-//W3C//DTD SVG 20010904//EN"
 "http://www.w3.org/TR/2001/REC-SVG-20010904/DTD/svg10.dtd">
<svg version="1.0" xmlns="http://www.w3.org/2000/svg"
 width="307.000000pt" height="211.000000pt" viewBox="0 0 307.000000 211.000000"
 preserveAspectRatio="xMidYMid meet">
<metadata>
Created by potrace 1.16, written by Peter Selinger 2001-2019
</metadata>
<g transform="translate(0.000000,211.000000) scale(0.100000,-0.100000)"
fill="#000000" stroke="none">
<path d="M2285 1690 c5 -9 4 -11 -4 -6 -17 11 -98 -58 -120 -102 -10 -21 -21
-53 -25 -73 -4 -24 -14 -39 -30 -47 -27 -12 -56 -68 -56 -109 0 -18 9 -37 22
-49 l22 -19 -17 25 c-9 13 -17 38 -16 55 l1 30 12 -37 c13 -42 49 -88 70 -88
8 0 23 11 33 25 16 22 22 24 49 16 29 -8 74 -3 133 15 20 6 22 9 9 18 -8 6
-18 26 -21 44 -6 29 -5 31 11 24 9 -5 22 -8 28 -5 6 2 17 -3 24 -12 8 -10 27
-14 54 -13 l41 1 -38 4 c-22 3 -42 12 -49 22 -7 11 -19 16 -38 13 -19 -3 -29
1 -33 13 -4 9 -3 14 2 11 5 -3 11 1 15 9 3 8 15 15 26 15 19 0 20 4 14 69 -4
38 -4 81 0 95 6 25 7 26 34 11 15 -8 38 -23 52 -33 13 -9 21 -12 17 -5 -18 28
-128 84 -178 90 -42 5 -50 3 -44 -7z m75 -25 c-7 -8 -14 -15 -15 -15 -2 0 -5
7 -9 15 -4 10 1 15 16 15 17 0 18 -2 8 -15z m-52 -6 c-2 -6 -6 -9 -9 -7 -3 2
-13 -3 -23 -11 -15 -13 -15 -15 1 -34 10 -10 17 -27 15 -37 -2 -11 10 -27 30
-41 54 -38 63 -49 40 -49 -11 0 -25 6 -32 14 -6 8 -21 16 -33 18 -12 2 -23 12
-26 23 -2 11 -8 23 -13 26 -18 12 -17 88 1 99 22 13 53 12 49 -1z m-68 -230
c0 -18 -2 -20 -15 -9 -13 11 -13 15 -3 21 18 12 18 12 18 -12z m82 -11 c-7 -7
-12 -8 -12 -2 0 6 3 14 7 17 3 4 9 5 12 2 2 -3 -1 -11 -7 -17z m-128 -52 c-8
-27 -11 -29 -23 -21 -6 3 -11 17 -11 30 0 18 4 22 20 18 16 -4 19 -11 14 -27z
m-41 -73 c-7 -2 -19 -2 -25 0 -7 3 -2 5 12 5 14 0 19 -2 13 -5z"/>
<path d="M2530 1585 c0 -2 14 -12 30 -20 18 -9 28 -21 24 -27 -4 -7 -3 -8 4
-4 20 12 14 21 -23 39 -19 9 -35 15 -35 12z"/>
<path d="M2601 1499 c-1 -9 6 -33 14 -52 17 -41 11 -67 -16 -67 -10 0 -19 -4
-19 -10 0 -13 42 4 53 22 7 10 3 32 -11 69 -12 30 -21 47 -21 38z"/>
<path d="M2534 1373 c17 -5 18 -12 13 -76 -4 -40 -9 -83 -12 -97 l-6 -25 12
25 c6 14 14 60 18 103 l7 77 -26 -1 c-19 -1 -20 -2 -6 -6z"/>
<path d="M2326 1258 c-5 -29 -16 -51 -34 -66 l-27 -23 29 17 c16 10 47 21 70
25 l41 6 -38 2 -37 1 6 40 c4 22 4 40 2 40 -3 0 -8 -19 -12 -42z"/>
<path d="M2467 1158 c44 -49 63 -97 63 -165 0 -33 -5 -46 -23 -58 -18 -12
-109 -44 -125 -45 -2 0 15 35 38 78 23 42 35 70 26 61 -15 -14 -70 -114 -179
-321 l-29 -56 35 -54 c52 -77 222 -254 273 -284 33 -20 53 -25 75 -20 34 7
132 -13 200 -40 l43 -18 -29 -12 c-37 -16 -17 -18 22 -3 l28 11 -37 19 c-58
30 -185 61 -219 54 -22 -5 -40 0 -72 18 -54 32 -213 195 -201 206 5 5 62 48
127 95 132 97 158 129 156 196 l-1 45 -8 -52 c-10 -65 -28 -89 -119 -155 -41
-29 -94 -68 -119 -86 -24 -18 -50 -31 -56 -29 -19 7 -76 97 -76 119 0 23 23
68 60 119 15 21 33 51 39 67 10 25 23 33 74 47 34 9 70 24 80 33 24 21 44 23
51 6 3 -8 14 -14 25 -14 14 0 23 -9 27 -25 4 -14 8 -24 11 -22 10 10 -28 167
-56 232 -17 39 -31 64 -31 57 0 -7 12 -40 26 -73 33 -79 43 -159 21 -159 -9 0
-19 9 -22 20 -3 11 -11 20 -16 20 -5 0 -9 17 -9 38 -1 69 -43 149 -95 182 -11
7 -1 -7 22 -32z"/>
<path d="M2247 1112 c-15 -27 -32 -73 -38 -103 -13 -62 -35 -109 -58 -125 -32
-23 -84 -154 -61 -154 5 0 10 11 10 24 0 24 48 131 55 124 2 -2 -2 -22 -9 -43
-21 -64 -27 -95 -18 -95 5 0 12 17 14 38 3 21 18 67 33 102 15 36 37 99 49
140 12 41 30 88 40 103 10 15 17 30 14 32 -3 3 -17 -17 -31 -43z"/>
<path d="M2016 778 c-51 -18 -63 -19 -97 -8 -61 21 -128 7 -196 -38 -55 -38
-142 -82 -160 -82 -5 0 -65 -16 -134 -36 -133 -38 -221 -45 -328 -24 -70 13
-141 13 -272 -2 -96 -11 -119 -10 -206 7 -106 20 -170 22 -187 5 -5 -5 -17
-10 -26 -10 -9 0 -41 -17 -71 -39 -30 -21 -90 -57 -133 -80 -44 -22 -74 -41
-67 -41 15 0 148 73 214 117 57 39 75 40 111 12 19 -15 25 -27 21 -43 -6 -21
-6 -21 10 -1 13 17 29 19 124 20 l108 1 -9 -30 c-5 -17 -12 -38 -15 -47 -2 -9
0 -20 6 -23 28 -17 5 -24 -62 -19 -41 3 -137 -1 -218 -10 -79 -9 -169 -18
-199 -21 -61 -6 -130 8 -130 26 0 9 -3 9 -12 0 -16 -16 -6 -23 49 -33 50 -10
78 -8 303 18 153 17 266 12 285 -13 10 -14 15 -15 35 -4 29 16 174 8 336 -16
135 -21 439 -24 714 -7 205 13 282 26 373 67 65 29 65 29 178 -79 96 -91 137
-122 174 -130 25 -5 22 -2 -16 19 -26 14 -82 58 -125 99 -44 40 -112 99 -152
131 -84 66 -99 87 -118 158 l-13 53 5 -50 c7 -62 23 -94 68 -133 20 -17 36
-33 36 -36 0 -6 -120 -53 -158 -61 -20 -4 -45 -2 -62 5 -52 22 -100 118 -100
202 0 53 43 133 80 148 39 16 45 10 19 -18 -13 -14 -21 -39 -23 -70 -2 -26 -2
-36 1 -22 7 47 58 131 65 110 7 -21 38 1 36 26 -1 13 -3 24 -3 23 0 0 -26 -10
-59 -21z m-101 -22 l30 -13 -37 -4 c-21 -3 -38 -1 -38 4 0 4 -21 -6 -46 -25
-35 -25 -47 -29 -54 -19 -6 11 -20 2 -59 -34 -27 -26 -53 -56 -56 -66 -8 -23
-25 -25 -25 -4 0 12 -5 13 -17 7 -17 -8 -50 -17 -258 -68 -78 -19 -311 -30
-329 -15 -21 17 -90 21 -151 10 -161 -30 -157 -30 -131 7 13 17 27 19 143 19
70 -1 173 -6 228 -12 87 -9 110 -8 175 7 41 10 131 30 200 45 143 31 143 31
213 91 76 66 76 65 105 74 40 12 73 11 107 -4z m-138 -178 c-8 -24 -12 -28
-15 -15 -2 10 2 24 8 32 19 22 20 18 7 -17z m-1167 7 c36 -8 90 -15 120 -16
l55 -1 -40 -9 c-22 -5 -78 -9 -125 -10 -70 -1 -94 2 -132 21 -27 12 -48 24
-48 26 0 9 110 2 170 -11z m433 -2 c-7 -2 -21 -2 -30 0 -10 3 -4 5 12 5 17 0
24 -2 18 -5z m-30 -70 c-7 -2 -19 -2 -25 0 -7 3 -2 5 12 5 14 0 19 -2 13 -5z
m740 -80 c7 -10 4 -13 -11 -13 -22 0 -33 28 -24 62 5 21 6 21 15 -7 5 -17 14
-36 20 -42z m67 7 c0 -5 -4 -10 -10 -10 -5 0 -10 5 -10 10 0 6 5 10 10 10 6 0
10 -4 10 -10z"/>
<path d="M2122 705 c0 -16 2 -22 5 -12 2 9 2 23 0 30 -3 6 -5 -1 -5 -18z"/>
<path d="M2468 703 c6 -2 18 -2 25 0 6 3 1 5 -13 5 -14 0 -19 -2 -12 -5z"/>
<path d="M2337 643 c-4 -3 1 -12 11 -19 16 -12 15 -13 -7 -14 -13 0 -22 -3
-18 -6 3 -4 19 -3 34 1 26 6 27 7 8 18 -18 11 -15 13 25 18 l45 6 -46 1 c-25
1 -49 -1 -52 -5z"/>
<path d="M1951 555 c-1 -64 33 -138 67 -143 12 -2 22 2 22 8 0 6 -4 9 -9 6
-20 -13 -55 46 -67 112 l-12 67 -1 -50z"/>
<path d="M1981 528 c-1 -22 9 -35 47 -63 26 -19 51 -35 56 -35 6 0 1 7 -10 15
-10 8 -15 15 -11 15 4 0 2 6 -5 14 -7 8 -16 12 -20 10 -15 -9 -39 10 -47 40
-9 31 -9 31 -10 4z"/>
<path d="M2125 503 c17 -36 13 -39 -25 -18 -14 8 -29 14 -35 14 -18 0 59 -38
78 -39 19 0 14 16 -18 55 -15 19 -15 18 0 -12z"/>
<path d="M2405 480 c9 -14 65 -28 145 -35 41 -4 107 -17 147 -30 40 -12 73
-21 73 -19 0 20 -174 64 -255 64 -25 0 -61 7 -81 15 -19 8 -32 10 -29 5z"/>
<path d="M2595 390 c3 -5 14 -10 23 -10 35 0 -5 -19 -48 -23 l-45 -4 52 -1
c28 -1 55 3 58 8 4 7 31 9 68 5 l62 -5 -65 15 c-36 8 -76 17 -88 20 -15 4 -21
2 -17 -5z"/>
<path d="M2595 211 c-16 -4 24 -7 90 -7 90 -1 107 1 70 7 -61 9 -120 9 -160 0z"/>
</g>
</svg>
