<?xml version="1.0" standalone="no"?>
<!DOCTYPE svg PUBLIC "-//W3C//DTD SVG 20010904//EN"
 "http://www.w3.org/TR/2001/REC-SVG-20010904/DTD/svg10.dtd">
<svg version="1.0" xmlns="http://www.w3.org/2000/svg"
 width="307.000000pt" height="255.000000pt" viewBox="0 0 307.000000 255.000000"
 preserveAspectRatio="xMidYMid meet">

<g transform="translate(0.000000,255.000000) scale(0.100000,-0.100000)"
fill="#000000" stroke="none">
<path d="M952 1935 c-32 -17 -63 -42 -77 -64 -29 -43 -55 -114 -55 -150 0 -26
-26 -82 -89 -194 -18 -32 -53 -119 -77 -194 -52 -160 -61 -175 -171 -301 -68
-78 -86 -105 -98 -151 -9 -31 -20 -69 -26 -86 -6 -16 -21 -69 -35 -117 -14
-53 -39 -113 -63 -150 -85 -136 -65 -187 79 -202 36 -3 93 -12 128 -18 70 -13
141 -1 174 29 25 23 23 28 -14 30 -50 4 -140 54 -165 92 -34 51 -30 96 18 190
23 45 48 81 55 81 8 0 2 -21 -18 -61 -72 -143 -39 -220 107 -254 39 -8 49 -15
47 -29 -3 -15 0 -16 19 -5 21 11 22 12 5 25 -10 7 -41 18 -69 25 -73 17 -104
35 -123 71 -33 64 12 177 117 288 33 36 57 70 54 77 -2 8 -1 12 4 9 9 -6 81
86 81 102 0 4 -14 -9 -32 -28 l-31 -35 24 33 c13 19 29 34 34 33 16 0 54 39
110 114 29 39 83 106 120 150 37 44 88 108 113 142 25 34 50 59 54 57 4 -3 8
-37 8 -76 0 -65 5 -82 50 -179 28 -59 50 -112 50 -116 0 -16 54 -61 90 -77 20
-8 65 -18 100 -22 52 -6 70 -13 92 -35 37 -36 35 -53 -7 -78 -19 -11 -41 -32
-47 -47 -10 -22 -9 -32 8 -64 14 -25 18 -44 13 -58 -8 -20 -5 -22 27 -22 30 0
44 -8 78 -44 25 -27 52 -46 71 -49 17 -3 44 -10 61 -17 63 -26 153 15 189 85
11 22 21 42 22 44 1 2 20 -12 41 -31 62 -56 128 -97 235 -149 56 -26 138 -71
182 -99 106 -67 159 -82 274 -76 50 3 95 7 99 9 4 3 22 8 39 12 38 8 50 20 27
29 -10 4 -13 2 -8 -6 5 -8 2 -9 -12 -3 -10 4 -55 12 -99 17 -94 10 -161 29
-230 63 -48 23 -38 26 29 8 15 -4 18 -1 12 12 -6 15 1 17 73 14 44 -2 74 -1
68 3 -22 14 -112 37 -204 52 -50 8 -105 22 -122 30 -36 19 -45 20 -35 4 4 -7
3 -8 -5 -4 -6 4 -9 11 -6 15 5 9 -95 92 -175 144 -83 55 -107 79 -115 114 -7
34 -46 83 -67 83 -7 1 -35 33 -63 72 -27 38 -66 93 -86 120 -21 30 -59 65 -93
85 -31 19 -56 41 -56 49 0 25 -40 95 -110 194 -37 52 -95 144 -130 204 -91
159 -114 193 -127 189 -6 -2 -22 10 -35 27 -39 53 -100 83 -182 87 -62 4 -78
1 -124 -22z m181 4 c23 -5 53 -19 67 -30 l25 -20 -32 15 c-22 11 -61 16 -123
16 l-90 0 -45 -41 c-47 -43 -58 -67 -75 -166 -7 -39 -26 -89 -50 -131 -21 -38
-46 -93 -55 -123 -10 -30 -30 -79 -46 -110 -16 -31 -29 -64 -29 -72 0 -8 -7
-17 -15 -21 -8 -3 -15 -16 -15 -29 0 -13 -11 -38 -25 -57 -14 -19 -25 -40 -25
-47 0 -8 -27 -39 -60 -71 -33 -31 -69 -75 -81 -98 -11 -23 -26 -45 -34 -48 -9
-3 -12 -16 -10 -35 3 -25 0 -31 -15 -31 -16 0 -17 4 -11 28 15 52 39 87 115
169 87 95 119 153 171 313 39 122 57 162 111 251 21 34 38 78 44 114 12 72 55
162 91 188 59 43 135 56 212 36z m-105 -120 c-6 -16 -12 -28 -14 -26 -5 5 13
57 20 57 3 0 0 -14 -6 -31z m246 10 c-4 -7 0 -9 12 -5 15 5 25 -5 47 -44 19
-34 24 -50 15 -50 -7 0 -1 -10 13 -23 15 -12 44 -51 64 -87 39 -67 163 -251
175 -260 7 -5 50 -98 50 -107 0 -2 -6 -1 -12 3 -10 6 -10 4 0 -8 7 -9 41 -32
76 -53 39 -23 70 -49 80 -68 9 -18 43 -68 76 -112 32 -44 57 -81 55 -83 -2 -2
4 -12 13 -22 10 -10 31 -37 47 -59 27 -37 89 -91 352 -304 135 -108 278 -167
411 -167 31 0 63 -4 70 -9 20 -12 -46 -21 -163 -21 -113 0 -142 10 -246 81
-34 23 -109 64 -166 90 -147 69 -238 135 -298 214 -53 71 -95 111 -155 151
-57 37 -72 54 -113 126 -48 85 -68 112 -102 138 -11 8 -1 -7 22 -35 40 -50 98
-153 90 -161 -7 -7 -96 15 -128 31 -56 29 -81 102 -54 157 9 18 38 51 65 72
28 22 48 41 45 44 -11 11 -115 -92 -126 -125 -15 -48 1 -103 42 -137 17 -14
24 -26 17 -26 -8 0 -19 5 -25 11 -6 6 -42 12 -80 13 -115 2 -133 16 -205 165
-42 86 -62 142 -65 176 -5 48 -4 51 29 68 33 18 107 77 97 77 -3 0 -30 -18
-59 -40 -29 -22 -58 -40 -63 -40 -5 0 3 20 18 45 14 25 23 50 20 55 -3 6 -1
10 4 10 6 0 11 5 11 11 0 8 -5 8 -15 -1 -8 -7 -12 -16 -9 -21 7 -12 -27 -69
-38 -63 -12 8 -10 42 5 51 17 11 19 46 1 39 -15 -6 -19 14 -5 29 16 18 30 74
20 80 -5 4 -9 -3 -9 -14 0 -11 -4 -22 -9 -25 -5 -3 -8 23 -7 59 0 35 4 57 7
47 4 -11 8 -5 13 21 4 23 21 52 45 77 36 38 60 53 45 29z m-202 -370 c-10 -16
-67 -79 -125 -138 -68 -69 -134 -148 -183 -222 -105 -157 -236 -329 -251 -329
-19 0 -16 8 18 43 17 18 71 93 121 167 110 164 112 166 257 315 64 66 130 141
146 166 17 26 32 43 33 38 2 -5 -5 -23 -16 -40z m-408 -389 c-15 -22 -29 -40
-31 -40 -5 0 3 15 29 53 30 43 31 32 2 -13z m156 -13 c0 -2 -15 -16 -32 -33
l-33 -29 29 33 c28 30 36 37 36 29z m-216 -77 c-15 -22 -28 -40 -31 -40 -6 0
18 43 35 63 25 29 24 19 -4 -23z m1104 -55 c4 -4 -11 -4 -33 0 -41 8 -105 31
-105 38 0 6 130 -29 138 -38z m-55 -9 c55 -16 57 -18 57 -51 0 -39 9 -50 82
-96 56 -35 77 -56 78 -76 0 -18 -63 11 -70 33 -4 9 -15 19 -26 20 -10 1 -35 5
-56 9 -31 6 -38 4 -48 -15 -15 -28 -4 -108 17 -132 9 -11 11 -18 5 -18 -16 0
-62 22 -62 30 0 21 -52 60 -80 60 -31 0 -38 8 -19 27 8 8 5 17 -10 32 -21 21
-28 66 -13 87 4 6 27 21 51 34 24 12 39 25 34 28 -6 4 -14 18 -18 31 -5 18 -4
23 6 19 8 -3 40 -13 72 -22z m-1200 -161 c20 -4 37 -9 37 -12 0 -2 -7 -18 -16
-34 -18 -36 -64 -173 -64 -193 0 -7 16 -34 35 -58 34 -46 118 -97 159 -99 14
0 6 -8 -26 -23 -44 -22 -49 -23 -120 -10 -40 7 -92 13 -116 13 -61 1 -108 23
-116 55 -7 30 7 66 57 149 19 32 40 81 47 110 6 29 18 71 26 94 15 40 17 42
37 28 12 -7 39 -17 60 -20z m1457 -129 c0 -2 -8 -10 -17 -17 -16 -13 -17 -12
-4 4 13 16 21 21 21 13z m578 -96 c105 -14 146 -28 85 -29 -24 -1 -43 -6 -43
-11 0 -6 -19 -9 -42 -8 -32 1 -57 12 -95 40 -29 21 -53 41 -53 43 0 2 15 -2
33 -10 18 -7 70 -19 115 -25z"/>
<path d="M1256 1694 c-4 -20 -5 -38 -2 -41 2 -3 8 11 12 31 3 21 4 39 1 42 -2
3 -8 -11 -11 -32z"/>
<path d="M1192 1670 c0 -14 2 -19 5 -12 2 6 2 18 0 25 -3 6 -5 1 -5 -13z"/>
<path d="M1363 1659 c9 -5 17 -18 18 -27 0 -11 2 -12 6 -4 6 15 -14 42 -31 42
-6 0 -3 -5 7 -11z"/>
<path d="M1231 1613 c-10 -26 -10 -27 4 -9 8 11 15 23 15 28 0 15 -7 8 -19
-19z"/>
<path d="M1409 1575 c5 -11 17 -29 26 -40 l16 -20 -10 20 c-5 11 -17 29 -26
40 l-16 20 10 -20z"/>
<path d="M1509 1446 c12 -16 21 -41 21 -56 0 -24 29 -74 53 -91 5 -4 6 -13 1
-20 -7 -12 -5 -12 9 -1 15 13 13 17 -18 49 -23 24 -35 46 -35 64 0 16 -11 40
-26 56 l-26 28 21 -29z"/>
<path d="M1451 1405 c0 -16 -12 -54 -26 -84 -14 -30 -24 -56 -22 -58 10 -9 58
120 54 145 -4 27 -4 27 -6 -3z"/>
<path d="M1300 1328 c-12 -13 -28 -36 -36 -51 -9 -16 -20 -25 -26 -21 -7 5 -8
2 -3 -6 4 -7 2 -16 -6 -21 -11 -7 -11 -9 -1 -9 7 0 21 14 30 31 9 18 30 47 46
65 31 38 28 46 -4 12z"/>
<path d="M1200 1325 c0 -7 7 -12 15 -12 8 0 16 5 18 12 3 6 -4 11 -14 11 -11
0 -19 -5 -19 -11z"/>
<path d="M1486 1278 c-20 -23 -36 -46 -36 -52 0 -6 7 1 17 14 9 14 27 37 41
53 14 15 23 27 20 27 -4 0 -23 -19 -42 -42z"/>
<path d="M1513 1228 c-22 -25 -43 -62 -43 -75 1 -4 8 6 17 22 8 17 25 40 36
53 11 12 18 22 15 22 -2 0 -14 -10 -25 -22z"/>
<path d="M1262 1185 c0 -16 2 -22 5 -12 2 9 2 23 0 30 -3 6 -5 -1 -5 -18z"/>
<path d="M1312 1108 c-1 -34 2 -58 8 -58 13 0 30 44 29 73 0 14 -5 8 -13 -18
l-13 -40 -5 50 -4 50 -2 -57z"/>
<path d="M1452 1060 c0 -14 2 -19 5 -12 2 6 2 18 0 25 -3 6 -5 1 -5 -13z"/>
<path d="M1400 1059 c0 -9 8 -27 18 -40 15 -17 21 -19 27 -9 5 9 4 11 -4 6 -7
-5 -17 5 -26 26 -8 18 -14 26 -15 17z"/>
<path d="M1460 1021 c0 -6 4 -13 10 -16 6 -3 7 1 4 9 -7 18 -14 21 -14 7z"/>
<path d="M1670 819 c0 -5 4 -8 9 -4 6 3 15 -4 21 -16 7 -11 14 -18 17 -15 7 7
-26 46 -39 46 -4 0 -8 -5 -8 -11z"/>
<path d="M1618 703 c-22 -5 -23 -17 -4 -32 14 -12 18 -9 29 22 7 17 5 18 -25
10z"/>
</g>
</svg>
