<?xml version="1.0" standalone="no"?>
<!DOCTYPE svg PUBLIC "-//W3C//DTD SVG 20010904//EN"
 "http://www.w3.org/TR/2001/REC-SVG-20010904/DTD/svg10.dtd">
<svg version="1.0" xmlns="http://www.w3.org/2000/svg"
 width="307.000000pt" height="243.000000pt" viewBox="0 0 307.000000 243.000000"
 preserveAspectRatio="xMidYMid meet">

<g transform="translate(0.000000,243.000000) scale(0.100000,-0.100000)"
fill="#000000" stroke="none">
<path d="M2407 1996 c-17 -12 -41 -36 -52 -53 -13 -19 -33 -34 -55 -39 -50
-13 -77 -68 -60 -121 18 -56 39 -75 77 -71 17 2 29 0 27 -4 -3 -4 0 -17 6 -28
9 -16 8 -20 -5 -20 -8 0 -15 -4 -15 -8 0 -5 -37 -24 -81 -43 -81 -34 -169 -99
-169 -124 0 -7 -26 -35 -57 -61 -32 -27 -94 -82 -138 -124 -44 -41 -120 -104
-169 -140 -105 -77 -214 -185 -222 -220 -12 -58 -39 -91 -103 -132 -36 -22
-95 -64 -131 -93 -109 -88 -113 -89 -297 -91 -89 -1 -169 -6 -177 -11 -8 -5
47 -7 128 -5 129 4 144 2 150 -13 9 -24 7 -25 -46 -11 -30 7 -79 9 -138 5 -82
-6 -94 -9 -122 -35 l-31 -29 6 32 c4 18 2 35 -2 38 -5 2 -34 -7 -64 -20 -31
-14 -75 -30 -99 -34 -39 -8 -40 -9 -11 -10 18 -1 55 8 83 19 l50 20 -15 -30
c-8 -16 -15 -46 -15 -66 l0 -37 -247 5 c-137 2 -259 1 -273 -2 -15 -5 2 -7 45
-7 39 0 293 -1 565 -2 l495 -2 88 25 c48 15 118 41 156 60 63 32 106 60 306
197 44 30 107 65 140 78 78 31 227 110 290 155 l50 36 6 -272 c8 -371 23 -426
119 -447 59 -13 170 -15 170 -3 0 4 29 6 65 4 66 -4 80 3 50 28 -13 11 -14 10
-9 -5 7 -16 1 -17 -76 -10 -60 5 -81 4 -76 -4 9 -13 -8 -14 -93 -1 -123 17
-131 48 -140 491 -5 257 -9 330 -20 343 -11 13 -12 37 -7 109 3 50 8 106 11
122 l5 30 -15 -33 c-18 -39 -31 -35 -93 32 -56 61 -64 59 -13 -3 23 -27 55
-56 71 -63 18 -8 28 -18 25 -26 -3 -8 -5 -22 -5 -32 0 -13 -10 -20 -37 -24
-97 -17 -360 -68 -375 -72 -13 -4 -18 0 -18 14 0 15 5 19 20 15 14 -4 20 0 20
11 0 19 11 21 28 4 9 -9 12 -3 11 27 -2 32 -3 34 -6 12 -4 -24 -7 -26 -19 -16
-12 10 -16 8 -21 -10 -4 -15 -11 -20 -24 -16 -13 5 -18 0 -21 -21 -2 -21 -11
-30 -40 -40 -28 -9 -38 -10 -42 -1 -3 9 -5 9 -5 0 -1 -13 -99 -68 -107 -60 -3
2 54 48 126 101 72 54 145 113 163 133 18 20 59 58 92 86 l60 50 5 -44 6 -44
4 47 c3 26 1 44 -4 41 -5 -4 -6 -1 -2 6 6 9 12 9 25 -3 22 -20 30 -20 50 -2 9
8 43 31 75 50 33 20 55 36 50 36 -6 0 -42 -20 -80 -45 -59 -38 -71 -42 -83
-30 -19 19 0 61 41 94 39 31 196 99 248 107 38 6 70 32 83 67 3 8 11 4 22 -10
16 -23 40 -30 49 -15 3 5 -5 8 -17 8 -30 -1 -49 67 -25 87 24 18 26 62 4 86
-12 13 -20 37 -20 59 -1 20 -5 43 -10 50 -11 18 -5 22 38 29 32 5 36 3 36 -15
0 -11 6 -23 13 -26 9 -5 9 -7 -1 -12 -6 -3 -9 -10 -6 -15 3 -6 1 -15 -4 -22
-13 -15 -18 -88 -8 -105 4 -7 4 -16 1 -22 -11 -17 21 -11 38 8 8 9 26 40 40
69 13 29 30 59 37 68 11 13 10 19 -5 34 -48 55 -185 69 -248 27z m-37 -77 c-7
-11 -14 -18 -17 -15 -3 3 0 12 7 21 18 21 23 19 10 -6z m52 -51 c-7 -7 -12 -8
-12 -2 0 6 3 14 7 17 3 4 9 5 12 2 2 -3 -1 -11 -7 -17z m-161 -25 c-12 -20
-14 -14 -5 12 4 9 9 14 11 11 3 -2 0 -13 -6 -23z m329 -27 c0 -2 -7 -9 -15
-16 -13 -11 -14 -10 -9 4 5 14 24 23 24 12z m-203 -48 c-3 -7 -5 -2 -5 12 0
14 2 19 5 13 2 -7 2 -19 0 -25z m-137 -583 c0 -21 -3 -23 -21 -17 -52 20 -437
-70 -578 -134 -61 -27 -61 -27 -61 -14 0 17 124 79 200 99 41 11 154 34 250
51 163 29 201 36 208 39 1 0 2 -10 2 -24z m-150 -145 c-19 -11 -39 -19 -45
-19 -5 0 6 8 25 19 19 11 40 19 45 19 6 0 -6 -8 -25 -19z m-529 -59 c-6 -11
-11 -31 -11 -44 0 -16 -7 -26 -20 -30 -12 -3 -20 -14 -20 -25 0 -12 -14 -30
-32 -43 -18 -13 -64 -55 -103 -95 -68 -69 -188 -144 -231 -144 -9 0 -23 -8
-30 -17 -12 -16 -15 -16 -24 -3 -15 23 -12 28 23 35 47 11 74 27 149 88 37 30
95 72 127 92 67 40 101 80 101 119 0 16 14 42 37 67 36 40 55 40 34 0z m-2
-187 c-13 -14 -33 -30 -44 -35 -11 -6 -2 6 20 25 47 42 58 47 24 10z m-195
-147 c-13 -24 -33 -52 -44 -62 -19 -18 -20 -17 -20 6 0 15 15 37 43 61 23 20
43 37 44 38 1 0 -9 -20 -23 -43z m66 -11 c0 -2 -7 -7 -16 -10 -8 -3 -12 -2 -9
4 6 10 25 14 25 6z m171 -34 c-38 -27 -107 -66 -96 -55 12 13 108 73 115 72 3
0 -6 -8 -19 -17z m-351 -22 c0 -14 -49 -32 -63 -23 -9 5 17 19 61 32 1 1 2 -4
2 -9z m25 -60 c-3 -5 -16 -10 -28 -9 -21 0 -21 1 -2 9 28 12 37 12 30 0z
m-102 -77 c-29 -2 -77 -2 -105 0 -29 2 -6 3 52 3 58 0 81 -1 53 -3z"/>
<path d="M2686 1925 c3 -11 9 -39 14 -63 4 -24 11 -46 15 -50 11 -11 -6 69
-21 103 -8 17 -12 21 -8 10z"/>
<path d="M2660 1819 c-10 -6 -11 -9 -2 -9 6 0 11 -5 10 -11 -2 -6 3 -14 10
-16 7 -3 12 4 12 16 0 25 -11 33 -30 20z"/>
<path d="M2726 1775 c4 -16 7 -36 7 -42 0 -7 4 -13 9 -13 12 0 9 21 -8 55
l-14 30 6 -30z"/>
<path d="M2724 1702 c3 -6 2 -13 -4 -17 -6 -4 -8 -10 -5 -15 10 -16 -25 -70
-45 -70 -29 0 -72 19 -97 42 -13 12 -23 17 -23 10 0 -6 11 -19 24 -29 l24 -19
-38 -22 c-21 -12 -49 -36 -61 -54 -20 -29 -16 -27 30 15 56 50 59 51 134 47
41 -2 47 1 47 18 0 12 4 23 9 26 13 8 19 66 8 73 -6 3 -7 1 -3 -5z"/>
<path d="M2390 1530 c30 -10 56 -17 58 -16 5 6 -77 36 -96 36 -9 -1 8 -9 38
-20z"/>
<path d="M2290 1530 c-18 -12 -2 -12 25 0 13 6 15 9 5 9 -8 0 -22 -4 -30 -9z"/>
<path d="M2465 1377 c0 -67 -5 -110 -14 -126 -9 -16 -16 -85 -22 -203 -5 -106
-17 -229 -31 -306 -13 -72 -23 -166 -23 -219 0 -91 0 -92 34 -127 19 -20 44
-39 55 -43 19 -6 18 -8 -9 -15 -24 -6 -22 -7 13 -4 24 3 81 -1 127 -8 46 -7
82 -9 79 -4 -3 4 3 8 13 8 10 0 24 4 31 9 9 5 -20 21 -90 46 -57 21 -120 46
-141 57 -22 11 -41 17 -45 14 -6 -6 95 -54 186 -88 69 -26 56 -33 -43 -23 -84
8 -148 36 -179 77 -24 34 -26 103 -8 233 17 115 16 113 45 108 24 -5 25 -7 20
-62 -3 -31 -11 -84 -19 -119 -8 -35 -14 -75 -13 -90 1 -35 35 123 44 206 4 34
11 62 16 62 5 0 9 12 9 28 0 15 12 86 27 157 29 142 27 196 -7 253 -26 42 -46
41 -55 -4 -3 -20 -8 -34 -11 -32 -2 3 2 37 11 77 15 74 19 192 7 223 -4 10 -7
-29 -7 -85z"/>
<path d="M2110 1241 c0 -6 4 -13 10 -16 6 -3 7 1 4 9 -7 18 -14 21 -14 7z"/>
<path d="M2198 1233 c6 -2 18 -2 25 0 6 3 1 5 -13 5 -14 0 -19 -2 -12 -5z"/>
<path d="M330 589 c-19 -24 -52 -50 -79 -61 -92 -39 -173 -80 -168 -84 2 -2
55 20 118 49 86 41 121 63 142 91 34 44 52 45 92 7 16 -16 41 -32 55 -36 20
-5 18 -2 -10 16 -19 12 -41 30 -48 40 -23 33 -65 24 -102 -22z"/>
</g>
</svg>
